<?xml version="1.0" encoding="UTF-8"?>
<svg id="Layer_2" data-name="Layer 2" xmlns="http://www.w3.org/2000/svg" viewBox="0 0 979.79 367.95">
  <defs>
    <style>
      .cls-1 {
        fill: #ee4e2c;
      }

      .cls-2 {
        fill: #fefefe;
        fill-rule: evenodd;
      }
    </style>
  </defs>
  <g id="Layer_1-2" data-name="Layer 1">
    <g>
      <g>
        <path class="cls-1" d="M304.45,.8H47.27L0,70.06s9.88,200.04,9.88,267.07c0,10.97,13.54,30.02,24.18,30.02H316.9c10.64,0,24.18-19.43,24.18-30.02,0-67.41,9.88-267.07,9.88-267.07L304.45,.8Zm-52.78,74.39H100.71V41.13c0-5.84,4.75-10.97,10.97-10.97H240.61c5.84,0,10.97,4.75,10.97,10.97v34.06h.1Z"/>
        <path class="cls-2" d="M142.51,237.79c0,4.42-23.8,30.02-23.8,30.02l-3.66,99.28h-26.74l-3.66-99.28s-23.8-25.65-23.8-30.02v-7.7l2.57-107.69c0-1.47,1.09-2.57,2.57-2.57h9.55c.38,0,.71,0,.71,.38,1.47,.38,2.95,.71,3.28,2.19h0v2.57s.38,21.61,.71,43.94c.38,21.99,1.09,44.7,1.09,45.79,.38,.71,4.04,4.04,6.98,3.66,3.28,0,6.98-4.04,6.98-4.04V123.07c0-3.28,5.13-3.66,5.13-3.66h2.95s5.13,.38,5.13,3.66v91.25s3.66,3.66,6.98,4.04c3.28,0,6.6-3.28,6.98-3.66,.38-2.57,1.85-89.73,1.85-89.73v-2.57h0c.38-1.47,1.85-2.19,3.28-2.19,.38,0,.38-.38,.71-.38h9.55c1.47,0,2.57,1.09,2.57,2.57l2.57,107.69c-.38,0-.38,4.42-.38,7.7h-.1Z"/>
        <path class="cls-2" d="M291.25,193.47c0,39.95-25.65,67.79-36.63,78.05-2.95,2.95-5.13,6.98-5.13,11.73-.71,20.14-3.28,75.1-3.66,83.89h-23.8c-.38-8.79-2.57-63.75-3.66-83.89-.38-4.42-2.19-8.79-5.13-11.73-10.97-10.26-36.63-38.48-36.63-78.05,0-50.54,34.82-73.25,57.15-73.25s57.53,22.71,57.53,73.25h-.05Z"/>
      </g>
      <g>
        <path class="cls-1" d="M437.96,365V182.54h111.02v35.53h-73.63v37.72h57.91v35.53h-57.91v73.63h-37.39v.05Zm469.67,2.95c-16.86,0-31.16-6.6-42.85-19.76-11.73-13.21-17.58-28.93-17.58-47.27s5.84-34.06,17.58-47.27,26.03-19.76,42.85-19.76c8.08,0,15.77,1.85,21.99,5.13,6.6,3.28,11.35,7.32,15.01,12.07v-78.76h35.15v192.72h-35.15v-14.3c-3.28,4.75-8.41,8.79-15.01,12.07-6.22,3.28-13.54,5.13-21.99,5.13Zm-15.77-41.76c5.84,6.6,13.92,9.88,23.47,9.88s17.58-3.28,23.47-9.88c5.84-6.6,8.79-15.01,8.79-25.27s-2.95-18.67-8.79-25.27-13.92-9.88-23.47-9.88-17.58,3.28-23.47,9.88c-5.84,6.6-8.79,15.01-8.79,25.27-.38,10.26,2.57,18.67,8.79,25.27Zm-78.05,22.33c-13.21,12.83-29.31,19.43-47.98,19.43s-34.82-6.6-47.98-19.43c-13.21-12.83-19.76-28.93-19.76-47.65s6.6-34.44,19.76-47.65c13.21-13.21,29.31-19.43,47.98-19.43s34.44,6.6,47.98,19.43c13.21,13.21,19.76,28.93,19.76,47.65s-6.6,34.82-19.76,47.65Zm-47.98-13.54c9.17,0,16.48-3.28,22.71-9.55,6.22-6.6,9.17-14.63,9.17-24.56s-2.95-17.96-9.17-24.56c-6.22-6.6-13.54-9.55-22.71-9.55s-16.86,3.28-23.09,9.55c-6.22,6.6-9.17,14.63-9.17,24.56s2.95,17.96,9.17,24.56c6.22,6.22,13.92,9.55,23.09,9.55Zm-101.14,13.54c-13.21,12.83-29.31,19.43-47.98,19.43s-34.82-6.6-47.98-19.43c-13.21-12.83-19.76-28.93-19.76-47.65s6.6-34.44,19.76-47.65c13.21-13.21,29.31-19.43,47.98-19.43s34.82,6.6,47.98,19.43c13.21,13.21,19.76,28.93,19.76,47.65s-6.6,34.82-19.76,47.65Zm-47.65-13.54c9.17,0,16.48-3.28,22.71-9.55,6.22-6.6,9.17-14.63,9.17-24.56s-2.95-17.96-9.17-24.56c-6.22-6.6-13.54-9.55-22.71-9.55s-16.86,3.28-23.09,9.55c-6.22,6.6-9.17,14.63-9.17,24.56s2.95,17.96,9.17,24.56c5.84,6.22,13.54,9.55,23.09,9.55Z"/>
        <path class="cls-1" d="M759.6,51.52c-11.78,0-22.37,4.99-29.59,12.92v-9.22c0-8.31-13.35-8.36-13.35,0v108.93c0,8.36,13.35,8.36,13.35,0v-48.5c7.27,7.93,17.86,12.92,29.59,12.92,21.85,0,39.62-17.29,39.62-38.53s-17.77-38.53-39.62-38.53Zm0,63.18h0c-13.97,0-25.32-11.07-25.32-24.61,0-12.21,9.22-22.42,21.28-24.32,.05,0,.14-.05,.19-.05,1.24-.19,2.52-.29,3.85-.29,10.31,0,19.24,6.03,23.13,14.73,0,.05,.05,.1,.05,.1,1.38,2.99,2.09,6.32,2.09,9.79,0,13.59-11.35,24.61-25.27,24.61v.05Zm-98.38,13.92c-21.85,0-39.67-17.29-39.67-38.53s17.77-38.53,39.67-38.53,39.67,17.29,39.67,38.53-17.77,38.53-39.67,38.53Zm0-63.18h0c-13.97,0-25.32,11.02-25.32,24.61s11.35,24.61,25.32,24.61,25.32-11.02,25.32-24.61-11.35-24.61-25.32-24.61Zm318.56,23.85c-.33-17.72-9.64-33.73-28.98-37.29-16.63-3.04-36.1,5.46-43.18,20.62-7.36,15.72-4.28,37.34,10.26,48.31,15.72,11.88,40.24,8.22,56.34-.57,7.51-4.09,.76-15.3-6.75-11.21-10.21,5.56-23.56,8.31-35.01,4.61-8.55-2.76-13.35-9.98-14.82-18h55.48c3.56,0,6.75-2.99,6.65-6.51v.05Zm-61.66-6.46h0c.1-.48,.24-.95,.38-1.43,3.18-10.55,14.11-16.67,25.18-16.96,12.68-.33,19.81,8.17,22.04,18.38h-47.6Zm-27.12,6.6c-.33-17.72-9.64-33.73-28.98-37.29-16.63-3.04-36.1,5.46-43.18,20.62-7.36,15.72-4.28,37.34,10.26,48.31,15.72,11.88,40.24,8.22,56.34-.57,7.51-4.09,.76-15.3-6.75-11.21-10.21,5.56-23.56,8.31-35.01,4.61-8.55-2.76-13.35-9.98-14.82-18h55.48c3.56,0,6.75-2.99,6.65-6.51v.05Zm-61.66-6.46h0c.1-.48,.24-.95,.38-1.43,3.18-10.55,14.11-16.67,25.18-16.96,12.68-.33,19.81,8.17,22.04,18.38h-47.6Zm-223.41-5.99v45.03c0,8.5-13.35,8.5-13.35,0v-44.13c-.48-8.74-7.89-12.73-8.12-12.83-9.5-4.13-26.74-2.23-37.01,10.83v46.17c0,8.5-13.35,8.5-13.35,0V6.4c0-8.5,13.35-8.46,13.35,0V58.36c16.34-10.93,37.15-9.74,46.93-3.04,0,0,11.73,6.41,11.54,21.71v-.05ZM512.25,11.67c-13.06-14.44-40.52-14.82-56.43-4.75-15.25,9.64-21.42,31.49-8.46,45.32,16.06,17.15,47.31,11.07,60,32.87,9.17,15.77-5.18,29.93-21.33,30.26-12.64,.29-28.12-3.94-36.86-12.97-5.84-6.08-15.3,3.04-9.45,9.07,12.92,13.4,36.72,19.33,55.2,15.91,17.24-3.18,31.16-19.33,28.31-36.67-3.52-21.52-25.13-31.92-44.61-37.58-14.2-4.13-34.44-13.4-20.9-30.5,9.5-12.02,34.44-13.63,45.03-1.95,5.65,6.22,15.06-2.9,9.45-9.07l.05,.05Z"/>
      </g>
    </g>
  </g>
</svg>