<?xml version="1.0" encoding="UTF-8"?>
<svg id="Layer_2" data-name="Layer 2" xmlns="http://www.w3.org/2000/svg" viewBox="0 0 1167.28 367.74">
  <defs>
    <style>
      .cls-1 {
        fill: #fff;
      }

      .cls-2 {
        fill: #0a1;
      }

      .cls-3 {
        fill: #ed2836;
      }
    </style>
  </defs>
  <g id="Layer_1-2" data-name="Layer 1">
    <g>
      <g>
        <path d="M535.52,159.01c-26.71,22.34-64.23,10-78.14-8.48-15.9-21.15-14.42-52.39,3.43-71.21,17.87-18.86,54.29-22.28,74.51-4.29v-11.61h27.46v4.53c0,33.79,.05,67.58-.02,101.37-.04,20.93-10.08,35.85-28.57,44.79-22.94,11.1-57.54,5.25-76.07-12.18-1-.95-2.22-1.66-1.75-2.16,5.39-5.94,10.74-11.92,16.27-17.73,.38-.39,2.43,.25,3.28,.93,12.61,10.01,26.82,12.7,42.08,8.43,11.16-3.11,17.43-12.33,17.51-23.91,.02-2.7,.01-5.4,.01-8.49h0Zm-1.49-42.45h0c.61-6.24,.08-12.58-4.64-17.96-4.03-4.6-9.13-7.23-14.85-9.02-11.29-3.55-26.02,.58-33.3,9.18-5.95,7.01-6.89,15.26-5.68,23.76,1.67,11.7,8.46,19.31,20.14,21.97,3.63,.82,7.48,1.34,11.16,1.08,9.54-.66,18.06-3.65,23.93-11.98,3.62-5.12,3.53-10.81,3.24-17.03h0Z"/>
        <path d="M1138.81,27.44h28.48V168.08h-25.95v-9.85c-12.49,11.82-26.92,14.34-42.33,12.7-15.62-1.66-28.72-8.32-38.29-21.09-15.13-20.17-13.19-51.2,4.6-70.32,16.62-17.86,50.09-23.19,73.49-5.82V27.44h0Zm.33,89.89h0c-.07,0-.15-.01-.22-.01,0-1.88-.08-3.77,.01-5.65,.34-7.33-2.81-13.14-8.82-16.76-4.6-2.78-9.84-5.14-15.09-6.1-12.23-2.26-25.15,2.28-31.68,13.02-8.11,13.3-4.04,32.34,8.84,39.7,8.83,5.03,18.34,5.6,27.98,2.9,8.79-2.46,15.71-7.38,18.17-16.66,.89-3.32,.58-6.95,.81-10.44Z"/>
        <path d="M638.85,63.17c20.64,.38,38.08,8.16,49.58,26.78,5.53,8.96,7.5,18.92,7.18,29.48-.34,11.45-3.9,21.63-10.82,30.6-8.65,11.21-20.29,17.69-34.11,20.16-17.85,3.19-34.66,.59-49.51-10.38-23.97-17.71-28.26-53.18-9.37-76.03,12.04-14.57,27.92-20.43,47.04-20.6h0Zm28.03,54.2h0c.96-16.55-12.09-29.1-28.09-29.05-18.22,.06-30.03,11.5-30.04,29.25,0,16.85,12.23,29,29.42,28.8,18.76-.23,29.56-14.22,28.71-29h0Z"/>
        <path d="M912.49,117.04c.3,29.38-23.13,50.44-48.88,53.62-18.67,2.3-35.39-1.52-49.61-14.14-20.46-18.16-23.61-49.98-6.71-71.43,12.6-15.99,29.58-22.76,49.85-21.89,13.33,.57,25.31,4.51,35.7,12.94,8.82,7.16,14.86,16.23,17.58,27.27,1.09,4.45,1.41,9.08,2.08,13.63h0Zm-29.12,.26h0c.67-16.84-11.86-28.39-26.98-29-20.26-.83-31.02,12.93-31.18,28.44-.18,17.28,11.81,29.53,29.09,29.44,18.2-.09,29.58-12.63,29.07-28.88Z"/>
        <path d="M923.67,113.63c-.5-23.24,19.58-44.92,44.79-49.31,22.63-3.93,42.91,1.01,58.62,18.95,6.59,7.53,10.12,16.51,11.62,26.48,1.96,13.03-.63,25.04-7.62,35.92-9.34,14.55-23.06,22.5-40.1,24.93-16.58,2.36-31.94-.48-45.57-10.53-14.5-10.69-21.72-25.14-21.74-46.42h0Zm28.76,3.53h0c-.03,17.26,11.65,28.96,29.02,29.08,16.92,.12,29.25-12.1,29.27-28.99,.02-16.45-11.9-28.53-27.68-29-18.24-.55-31.1,11.9-30.61,28.91h0Z"/>
        <path d="M757.3,90.29v77.75h-28.63V90.55c-7.25,0-14.13-.11-21.01,.06-2.67,.07-3.5-.81-3.44-3.42,.13-7.01,.04-14.02,.04-21.39h24.58c0-4.95-.53-9.63,.1-14.14,1.92-13.74,10.4-22.62,24.39-24.15,11.04-1.2,22.25-.76,33.39-.89,.77-.01,2.21,1.31,2.23,2.04,.17,7.37,.1,14.76,.1,22.68-7.9,0-15.4-.04-22.9,.01-6.64,.05-8.83,2.37-8.82,9.18v5.1h38.16v24.66h-38.19Z"/>
        <path class="cls-2" d="M854.77,292.97c-1.12,20.89-10.43,35.2-28.28,43.85-5.19,2.52-10.03,.53-12.39-4.78-1.82-4.1,.26-8.76,5.15-10.94,12.64-5.64,18.19-17.2,17.96-28.09-.29-13.23-8.22-23.33-20.7-27.67-12.01-4.18-24.55-.12-33.41,10.81-6.81,8.39-7.4,22.89-1.43,32.61,3.32,5.39,7.7,9.46,13.45,12.17,5.42,2.56,7.34,7.27,5.14,11.93-2.24,4.77-7.54,6.29-12.86,3.6-14.31-7.21-23.67-18.42-26.54-34.33-4.53-25.15,11.18-47.7,33.81-53.96,26.75-7.4,52.44,9.5,58.42,33.96,.94,3.86,1.23,7.89,1.67,10.84h0Z"/>
        <path d="M923.07,267.45c.14-2.01,.25-3.6,.38-5.42h13.81c.1,1.02,.29,1.97,.29,2.93,.01,16.33,.1,32.65-.03,48.97-.08,10.07-3.97,18.35-12.96,23.44-11.28,6.37-28.87,4.36-38.94-4.11-.95-.8-1.85-1.64-2.96-2.64,2.99-2.94,5.93-5.84,9.15-9.01,5.04,4.04,10.67,6.07,17.26,5.87,10.16-.3,15.16-5.87,13.84-16.69-8.5,6.65-17.88,6.9-27.41,3.72-5.68-1.9-10.17-5.71-13.35-11.01-6.72-11.19-4.99-25.4,4.31-34.08,9.97-9.29,25.04-10.25,36.61-1.98h0Zm-.58,21.69h0c0-9.46-5.14-14.62-14.48-14.53-8.79,.08-14.71,5.83-15.03,13.85-.42,10.45,6.37,15.15,15.36,15.03,9.23-.12,14.15-5.01,14.15-14.35h0Z"/>
        <path d="M1157.27,261.86c-8.52,8.04-16.28,15.36-24.15,22.78,8,10.65,15.84,21.06,24.2,32.19-5.72,0-10.45,.14-15.16-.1-1.11-.06-2.41-1.23-3.16-2.23-4.35-5.82-8.55-11.74-12.82-17.62-.72-.99-1.48-1.95-2.76-3.63-3.07,3.51-6.98,6.28-8.31,9.98-1.4,3.87-.32,8.63-.32,13.61h-13.64c-.1-1.64-.24-2.96-.24-4.29-.02-20.6,.09-41.18-.11-61.78-.04-3.95,1.17-5.1,4.92-4.7,2.83,.3,5.71,.06,9.02,.06v37.68c4.33-3.9,7.93-7.09,11.46-10.35,3.6-3.31,7.1-6.72,10.71-10,.79-.71,1.88-1.49,2.85-1.52,5.46-.14,10.93-.07,17.51-.07h0Z"/>
        <path d="M1050.72,294.01c.85,5.82,6.41,10.26,12.82,10.77,5.41,.43,10.48-.36,14.91-3.88,.7-.56,2.23-1,2.84-.63,2.95,1.82,5.73,3.93,8.84,6.13-9.6,9.55-20.52,12.19-33.08,9.08-10.2-2.52-17.61-8.25-20.01-18.72-5.21-22.8,12.35-37.87,32.64-34.43,11.77,1.99,19.11,8.9,21.87,20.41,.82,3.44,.58,7.14,.87,11.27h-41.69Zm27.24-10.51h0c-.96-6.83-6.39-10.09-15.54-9.66-6.56,.3-11,4.03-11.33,9.66h26.87Z"/>
        <path d="M974.99,261.09c16.22,.64,28.28,10.75,29.49,26.48,.83,10.73-3.89,19.35-13.34,25.13-10.81,6.63-27.95,4.86-37.1-3.99-13.73-13.26-9.53-36.66,8.05-44,4.09-1.71,8.59-2.43,12.9-3.61Zm14.75,28.29h0c-.03-8.93-5.73-14.84-14.34-14.77-9.67,.07-14.72,6.31-15.05,14.8-.31,8.16,6.69,14.72,14.89,14.66,8.75-.06,14.53-5.92,14.5-14.69h0Z"/>
        <path d="M1012.98,261.9h14.33v3.6c0,19.86,.01,39.72-.01,59.56-.01,10.02-5.85,15.84-15.87,15.88-3.86,.01-7.72,0-12.01,0v-12.97c2.6,0,4.93,.09,7.26-.02,5.3-.26,6.3-1.34,6.3-6.56,.01-18.35,0-36.7,0-55.03v-4.46Z"/>
        <path class="cls-2" d="M789.87,293.18c-1.08-8.03,9.1-17.71,17.75-17.14,9.57,.63,17.5,8.1,17.43,17.65-.06,9.53-8.33,17.94-17.86,17.69-9.53-.25-17.88-7.8-17.32-18.2h0Z"/>
        <path d="M458.55,268.55h14.79c8.05,0,12.81,4.55,12.81,11.83s-4.71,11.72-12.81,11.72h-10.3v14.79h-4.49v-38.34h0Zm14.52,19.28h0c5.86,0,8.54-2.36,8.54-7.45s-2.8-7.56-8.54-7.56h-10.03v15.01h10.03Z"/>
        <path d="M502.04,277.03c8.21,0,13.69,6.19,13.69,15.33s-5.48,15.34-13.69,15.34-13.64-6.19-13.64-15.34,5.48-15.33,13.64-15.33Zm0,4h0c-5.75,0-9.37,4.38-9.37,11.33s3.62,11.34,9.37,11.34,9.42-4.38,9.42-11.34-3.67-11.33-9.42-11.33Z"/>
        <polygon points="518.46 277.85 522.68 277.85 527.94 300.41 528.05 300.41 535.82 277.85 539.71 277.85 547.49 300.41 547.6 300.41 552.85 277.85 557.07 277.85 550.12 306.88 546.06 306.88 537.85 283.16 537.74 283.16 529.47 306.88 525.42 306.88 518.46 277.85"/>
        <path d="M573.29,277.03c7.77,0,12.97,5.86,12.97,14.4v2.19h-22.07c.11,5.59,3.67,10.19,8.98,10.19,4.11,0,6.41-1.48,8.88-5.81l3.56,2.14c-2.47,4.98-6.68,7.56-12.32,7.56-8.06,0-13.42-6.19-13.42-15.34s5.53-15.33,13.42-15.33Zm8.65,13.14h0c-.06-2.68-.93-4.87-2.52-6.62-1.59-1.76-3.62-2.63-6.13-2.63-4.93,0-8.88,4.38-8.99,9.25h17.64Z"/>
        <path d="M592.34,277.85h4.05v2.41h.11c1.09-1.81,3.23-2.9,6.02-2.9,.88,0,1.87,.16,2.91,.44l-.94,4.43c-1.04-.33-2.02-.49-2.84-.49-3.45,0-5.04,2.3-5.04,7.72v17.42h-4.27v-29.03h0Z"/>
        <path d="M620.82,277.03c7.77,0,12.98,5.86,12.98,14.4v2.19h-22.07c.1,5.59,3.66,10.19,8.98,10.19,4.1,0,6.41-1.48,8.87-5.81l3.56,2.14c-2.47,4.98-6.68,7.56-12.32,7.56-8.05,0-13.42-6.19-13.42-15.34s5.53-15.33,13.42-15.33Zm8.65,13.14h0c-.06-2.68-.93-4.87-2.52-6.62-1.59-1.76-3.61-2.63-6.13-2.63-4.93,0-8.87,4.38-8.99,9.25h17.64Z"/>
        <path d="M651.82,277.03c3.5,0,6.62,1.48,8.54,3.89h.11v-14.02h4.27v39.97h-4.11v-2.91h-.11c-1.91,2.36-5.14,3.73-8.7,3.73-7.56,0-13.04-6.3-13.04-15.34s5.48-15.33,13.04-15.33h0Zm8.65,12.49h0c0-4.71-3.83-8.49-8.65-8.49-5.2,0-8.77,4.49-8.77,11.33s3.57,11.34,9.04,11.34c4.6,0,8.38-3.83,8.38-8.54v-5.64h0Z"/>
        <path d="M690.86,303.97v2.91h-4.11v-39.97h4.27v14.02h.11c1.92-2.41,5.04-3.89,8.55-3.89,7.55,0,13.03,6.3,13.03,15.33s-5.48,15.34-13.03,15.34c-3.56,0-6.8-1.37-8.71-3.73h-.11Zm8.82-22.94h0c-4.82,0-8.66,3.78-8.66,8.49v5.64c0,4.71,3.78,8.54,8.38,8.54,5.48,0,9.04-4.49,9.04-11.34s-3.56-11.33-8.76-11.33h0Z"/>
        <polygon points="725.31 304.41 714.14 277.85 718.68 277.85 727.5 299.48 727.61 299.48 736.48 277.85 741.03 277.85 723.61 319.2 719.18 319.2 725.31 304.41"/>
      </g>
      <g>
        <path class="cls-3" d="M184.07,367.73C82.99,368.4-1.72,285.06,.03,180.87,1.7,81.39,82.24-.79,185.6,0c103.02,.79,182.25,85.15,182.35,183.85,.1,102.08-84.25,184.79-183.88,183.88h0Zm121.44-201.77h0c-.23-10.19-2.75-22.81-6.81-35.09-4.61-13.97-11.1-26.86-22.16-37.04-11.59-10.68-27.69-12.9-41.47-5.33-11.76,6.45-18.83,17.04-24.44,28.73-7.48,15.56-11.05,32.18-12.43,49.28-.79,9.87,.41,19.5,4.54,28.66,4.67,10.36,12.08,18.25,21.25,24.8,7.26,5.18,10.98,12.4,11.07,21.49,.07,6.76,.44,13.54,.85,20.3,.36,6.11,.51,12.29,1.58,18.3,1.24,6.92,8.6,12.1,15.19,11.56,7.69-.64,13.91-6.93,14.27-14.46,.54-11.26,1.24-22.53,1.57-33.8,.33-10.85,4.92-18.89,13.74-25.32,16.6-12.08,24.55-28.61,23.26-52.08h0ZM104.59,124.9h0c0,9.55,.08,19.11-.03,28.66-.06,5.25-4.01,9.48-8.66,9.67-4.77,.2-9.05-3.63-9.07-9-.03-7.77,.27-15.57,.97-23.31,.71-7.97,2.21-15.87,3.13-23.83,.87-7.56-4.84-14.49-12.34-15.32-6.74-.75-13.14,4.86-14.02,12.35-1.07,9.18-2.59,18.35-3.02,27.57-.67,14.49-1.6,29.09-.57,43.5,1.38,19.56,11.08,35.04,27.46,46.12,7.87,5.32,12.4,12.75,13.02,22.21,.73,11.27,1.06,22.56,1.55,33.84,.25,5.65,4.47,11.47,9.63,13.26,5.89,2.04,11.52,.56,15.75-4.03,3.19-3.46,4.11-7.68,4.28-12.16,.3-8.27,.42-16.55,.82-24.82,.16-3.47,.52-7,1.33-10.37,1.87-7.74,6.96-13.16,13.48-17.38,10.36-6.69,17.43-15.99,22.28-27.24,4.45-10.33,4.86-21.26,4.78-32.11-.11-13.52-1.08-27.04-2.08-40.51-.5-6.72-1.7-13.41-2.95-20.04-1.05-5.54-6.62-10.07-12.01-10.37-5.17-.3-10.09,3.36-12.53,8.54-2.41,5.13-.63,10.07-.22,15.12,1.05,12.86,2.16,25.71,2.78,38.59,.11,2.4-1.51,5.3-3.18,7.25-2.21,2.59-5.52,2.71-8.68,1.33-3.82-1.65-5.28-4.88-5.3-8.75-.07-17.34-.02-34.69-.08-52.02,0-2.12-.24-4.27-.69-6.33-1.55-7.18-7.39-11.85-13.87-11.26-6.87,.62-11.92,6.53-11.95,14.07-.04,8.92-.01,17.85-.01,26.77h0Z"/>
        <path class="cls-1" d="M305.52,165.96c-.23-10.19-2.75-22.81-6.81-35.09-4.61-13.97-11.1-26.86-22.16-37.04-11.59-10.68-27.69-12.9-41.47-5.33-11.76,6.45-18.83,17.04-24.44,28.73-7.48,15.56-11.05,32.18-12.43,49.28-.79,9.87,.41,19.5,4.54,28.66,4.67,10.36,12.08,18.25,21.25,24.8,7.26,5.18,10.98,12.4,11.07,21.49,.07,6.76,.44,13.54,.85,20.3,.36,6.11,.51,12.29,1.58,18.3,1.24,6.92,8.6,12.1,15.19,11.56,7.69-.64,13.91-6.93,14.27-14.46,.54-11.26,1.24-22.53,1.57-33.8,.33-10.85,4.92-18.89,13.74-25.32,16.6-12.08,24.55-28.61,23.26-52.08h0Z"/>
        <path class="cls-1" d="M104.59,124.9c0,9.55,.08,19.11-.03,28.66-.06,5.25-4.01,9.48-8.66,9.67-4.77,.2-9.05-3.63-9.07-9-.03-7.77,.27-15.57,.97-23.31,.71-7.97,2.21-15.87,3.13-23.83,.87-7.56-4.84-14.49-12.34-15.32-6.74-.75-13.14,4.86-14.02,12.35-1.07,9.18-2.59,18.35-3.02,27.57-.67,14.49-1.6,29.09-.57,43.5,1.38,19.56,11.08,35.04,27.46,46.12,7.87,5.32,12.4,12.75,13.02,22.21,.73,11.27,1.06,22.56,1.55,33.84,.25,5.65,4.47,11.47,9.63,13.26,5.89,2.04,11.52,.56,15.75-4.03,3.19-3.46,4.11-7.68,4.28-12.16,.3-8.27,.42-16.55,.82-24.82,.16-3.47,.52-7,1.33-10.37,1.87-7.74,6.96-13.16,13.48-17.38,10.36-6.69,17.43-15.99,22.28-27.24,4.45-10.33,4.86-21.26,4.78-32.11-.11-13.52-1.08-27.04-2.08-40.51-.5-6.72-1.7-13.41-2.95-20.04-1.05-5.54-6.62-10.07-12.01-10.37-5.17-.3-10.09,3.36-12.53,8.54-2.41,5.13-.63,10.07-.22,15.12,1.05,12.86,2.16,25.71,2.78,38.59,.11,2.4-1.51,5.3-3.18,7.25-2.21,2.59-5.52,2.71-8.68,1.33-3.82-1.65-5.28-4.88-5.3-8.75-.07-17.34-.02-34.69-.08-52.02,0-2.12-.24-4.27-.69-6.33-1.55-7.18-7.39-11.85-13.87-11.26-6.87,.62-11.92,6.53-11.95,14.07-.04,8.92-.01,17.85-.01,26.77h0Z"/>
      </g>
    </g>
  </g>
</svg>