<?xml version="1.0" encoding="UTF-8"?>
<svg id="Layer_2" data-name="Layer 2" xmlns="http://www.w3.org/2000/svg" viewBox="0 0 200 104.84">
  <defs>
    <style>
      .cls-1 {
        fill: #c09551;
      }
    </style>
  </defs>
  <g id="Layer_2-2" data-name="Layer 2">
    <g>
      <path class="cls-1" d="M20.25,104.84c-1.29,0-2.59-.14-3.88-.41-4.67-1-8.69-3.73-11.04-7.49l-2.07-3.3c-4.64-7.42-4.31-16.16,.88-22.8l19.35-24.8c.6-.77,1.65-1,2.52-.56,.87,.44,1.3,1.43,1.03,2.36-1.22,4.3-1.1,8.65,.34,12.93l5.13,15.25c1.79,5.32,5.51,10.02,10.76,13.61,.56,.38,.89,1.01,.89,1.69s-.34,1.3-.9,1.68l-13.7,9.14c-2.67,1.79-5.93,2.72-9.29,2.72Zm1.91-50.52l-14.83,19.01c-4.1,5.26-4.35,12.22-.64,18.15l2.07,3.3c1.77,2.84,4.85,4.9,8.45,5.68,3.61,.77,7.28,.15,10.07-1.71l11.31-7.54c-4.74-3.83-8.15-8.59-9.94-13.9l-5.13-15.25c-.85-2.52-1.3-5.12-1.36-7.73Z"/>
      <path class="cls-1" d="M65.73,100.32c-8.96,0-17.76-2.55-24.76-7.34-5.98-4.08-10.24-9.5-12.31-15.66l-5.13-15.25c-1.68-5-1.82-10.3-.39-15.33,3.21-11.32,13.75-20.21,27.52-23.21l3.29-.72c.65-.14,1.34,.04,1.82,.5,.49,.46,.72,1.13,.62,1.79-.13,.87-.21,1.75-.22,2.6l19.64,57.2c1.03,2.99,2.85,5.68,5.44,7.99,.26,.24,.46,.53,.57,.87l.58,1.74c.18,.55,.12,1.15-.16,1.65-.28,.5-.77,.86-1.33,.98l-5.23,1.14c-3.27,.71-6.61,1.06-9.92,1.06ZM52.1,27.36l-.59,.13c-12.3,2.68-21.68,10.48-24.48,20.35-1.22,4.3-1.1,8.65,.34,12.93l5.13,15.25c1.79,5.32,5.51,10.02,10.76,13.61,8.7,5.95,20.48,8.07,31.53,5.67l2.51-.55c-2.47-2.52-4.27-5.38-5.35-8.53L52.2,28.68c-.07-.21-.11-.44-.11-.66s0-.44,0-.67Z"/>
      <path class="cls-1" d="M179.74,103.79c-3.36,0-6.61-.93-9.28-2.71l-13.7-9.14c-.56-.37-.9-1-.9-1.68,0-.67,.33-1.31,.88-1.69,5.24-3.59,8.96-8.29,10.75-13.61l5.13-15.24c1.42-4.22,1.54-8.69,.34-12.93-.26-.93,.17-1.92,1.03-2.36,.87-.44,1.92-.2,2.52,.56l19.35,24.8c5.18,6.65,5.52,15.38,.88,22.8h0s-2.07,3.3-2.07,3.3c-2.36,3.76-6.39,6.49-11.05,7.49-1.29,.28-2.59,.41-3.88,.41Zm-18.33-13.63l11.3,7.54c2.79,1.86,6.45,2.48,10.06,1.71,3.6-.77,6.69-2.84,8.46-5.67l2.07-3.3c3.71-5.93,3.47-12.89-.64-18.15l-14.83-19.01c-.06,2.6-.51,5.2-1.36,7.73l-5.13,15.24c-1.79,5.31-5.2,10.07-9.93,13.9Zm33.61,1.36h0Z"/>
      <path class="cls-1" d="M134.26,99.27c-3.31,0-6.65-.35-9.92-1.06l-4.86-1.06c-.76-.17-1.36-.75-1.54-1.51-.18-.76,.09-1.55,.69-2.05,2.98-2.43,5.15-5.44,6.27-8.7l19.63-57.2c-.02-1.16-.15-2.31-.38-3.44-.14-.67,.07-1.37,.56-1.85,.49-.48,1.19-.68,1.86-.54l2.77,.6c13.77,3,24.31,11.89,27.52,23.21,1.42,5.03,1.29,10.33-.39,15.33l-5.13,15.24c-2.07,6.16-6.33,11.58-12.31,15.67-7.01,4.8-15.82,7.34-24.77,7.34Zm-10.17-5.27l1.12,.24c11.05,2.4,22.84,.29,31.54-5.67,5.24-3.59,8.96-8.29,10.75-13.61l5.13-15.24h0c1.42-4.22,1.54-8.69,.34-12.93-2.79-9.86-12.15-17.65-24.41-20.34,.04,.52,.05,1.05,.05,1.58,0,.22-.04,.45-.11,.66l-19.74,57.53c-.96,2.81-2.55,5.45-4.65,7.79Z"/>
      <path class="cls-1" d="M100.35,103.79c-8.31,0-16.26-2.88-21.83-7.89-3.1-2.78-5.31-6.04-6.56-9.69L52.2,28.68c-.07-.21-.11-.44-.11-.66,0-1.17,.09-2.36,.27-3.55,1.29-8.34,7.04-15.7,15.79-20.19,1-.51,2.22-.12,2.73,.88,.51,1,.12,2.22-.88,2.73-7.57,3.89-12.54,10.15-13.63,17.19-.13,.87-.21,1.74-.22,2.6l19.64,57.2c1.03,2.99,2.85,5.68,5.44,7.99,4.84,4.35,11.8,6.85,19.12,6.85,6.85,0,13.52-2.24,18.28-6.14,2.99-2.43,5.15-5.44,6.27-8.7l19.63-57.2c-.02-1.16-.15-2.31-.38-3.44-2.31-11.52-15.16-20.2-29.91-20.2h-21.02c-1.12,0-2.03-.91-2.03-2.03s.91-2.03,2.03-2.03h21.02c16.92,0,31.17,9.86,33.89,23.45,.3,1.49,.46,3.03,.46,4.57,0,.22-.04,.45-.11,.66l-19.74,57.53c-1.37,3.98-3.97,7.62-7.55,10.53-5.56,4.55-12.96,7.05-20.85,7.05ZM146.57,28.03h0Z"/>
      <path class="cls-1" d="M75.55,5.57c-.88,0-1.69-.58-1.95-1.47-.31-1.08,.31-2.2,1.39-2.51,3.67-1.06,7.53-1.59,11.46-1.59,1.12,0,2.03,.91,2.03,2.03s-.91,2.03-2.03,2.03c-3.55,0-7.03,.48-10.33,1.43-.19,.05-.38,.08-.56,.08Z"/>
    </g>
  </g>
</svg>