<?xml version="1.0" encoding="UTF-8"?>
<svg id="Layer_2" data-name="Layer 2" xmlns="http://www.w3.org/2000/svg" viewBox="0 0 200 166.46">
  <defs>
    <style>
      .cls-1 {
        fill: #c09551;
      }
    </style>
  </defs>
  <g id="Layer_2-2" data-name="Layer 2">
    <g>
      <path class="cls-1" d="M60.92,46.37c-.92,0-1.77-.59-2.06-1.51-.37-1.14,.26-2.36,1.4-2.73l11.92-3.83c1.14-.37,2.36,.26,2.73,1.4,.37,1.14-.26,2.36-1.4,2.73l-11.92,3.83c-.22,.07-.44,.1-.66,.1Z"/>
      <path class="cls-1" d="M189.91,166.46H10.09c-5.56,0-10.09-4.53-10.09-10.09V69.46c0-4.77,3.05-8.95,7.59-10.41l42.55-13.67c1.14-.37,2.36,.26,2.73,1.4,.37,1.14-.26,2.36-1.4,2.73L8.91,63.19c-2.74,.88-4.57,3.4-4.57,6.28v86.91c0,3.17,2.58,5.75,5.75,5.75H189.91c3.17,0,5.75-2.58,5.75-5.75V69.46c0-3.55-1.37-6.89-3.86-9.41l-36.5-36.97c-3.21-3.25-7.9-4.4-12.24-3-1.14,.37-2.36-.26-2.73-1.4-.37-1.14,.26-2.36,1.4-2.73,5.91-1.9,12.29-.33,16.65,4.08l36.5,36.97c3.3,3.34,5.11,7.76,5.11,12.46v86.91c0,5.56-4.53,10.09-10.09,10.09Z"/>
      <path class="cls-1" d="M84.62,38.75c-.92,0-1.77-.59-2.07-1.51-.37-1.14,.26-2.36,1.4-2.73l13.93-4.48,24.97-8.28c1.14-.38,2.37,.24,2.74,1.38,.38,1.14-.24,2.36-1.38,2.74l-24.99,8.29-13.95,4.48c-.22,.07-.44,.1-.66,.1Z"/>
      <path class="cls-1" d="M197.83,71.63H2.17c-1.2,0-2.17-.97-2.17-2.17s.97-2.17,2.17-2.17H197.83c1.2,0,2.17,.97,2.17,2.17s-.97,2.17-2.17,2.17Z"/>
      <path class="cls-1" d="M197.83,110.73H2.17c-1.2,0-2.17-.97-2.17-2.17s.97-2.17,2.17-2.17H197.83c1.2,0,2.17,.97,2.17,2.17s-.97,2.17-2.17,2.17Z"/>
      <path class="cls-1" d="M197.83,129.18H2.17c-1.2,0-2.17-.97-2.17-2.17s.97-2.17,2.17-2.17H197.83c1.2,0,2.17,.97,2.17,2.17s-.97,2.17-2.17,2.17Z"/>
      <path class="cls-1" d="M136.42,50.51c-9.75,0-17.68-7.93-17.68-17.68s7.93-17.68,17.68-17.68,17.68,7.93,17.68,17.68-7.93,17.68-17.68,17.68Zm0-31.01c-7.35,0-13.34,5.98-13.34,13.34s5.98,13.34,13.34,13.34,13.34-5.98,13.34-13.34-5.98-13.34-13.34-13.34Z"/>
      <path class="cls-1" d="M136.42,35.01c-1.2,0-2.17-.97-2.17-2.17,0-14.25-18.62-28.81-18.81-28.95-.95-.73-1.12-2.09-.39-3.04,.73-.95,2.09-1.12,3.04-.39,.84,.65,20.5,16,20.5,32.39,0,1.2-.97,2.17-2.17,2.17Z"/>
    </g>
  </g>
</svg>