<?xml version="1.0" encoding="UTF-8"?>
<svg id="Layer_2" data-name="Layer 2" xmlns="http://www.w3.org/2000/svg" viewBox="0 0 200 154.43">
  <defs>
    <style>
      .cls-1 {
        fill: #c09551;
      }
    </style>
  </defs>
  <g id="Layer_3" data-name="Layer 3">
    <path class="cls-1" d="M166.6,154.43c-9.48,0-17.51-6.79-19.09-16.15l-.23-1.38H52.72l-.23,1.38c-1.58,9.36-9.61,16.15-19.09,16.15s-17.51-6.79-19.09-16.15l-.23-1.38h-5.22c-4.89,0-8.86-3.98-8.86-8.86V1.85C0,.83,.83,0,1.85,0H135.05c1.02,0,1.85,.83,1.85,1.85V42.06h33.05c2.87,0,5.56,1.39,7.22,3.72l21.36,37.54,.05,.07c.9,1.26,1.42,3.01,1.42,4.8v39.85c0,4.89-3.98,8.86-8.86,8.86h-5.22l-.23,1.38c-1.58,9.36-9.61,16.15-19.09,16.15Zm0-35.05c-8.64,0-15.67,7.03-15.67,15.67s7.03,15.67,15.67,15.67,15.67-7.03,15.67-15.67-7.03-15.67-15.67-15.67Zm-133.2,0c-8.64,0-15.67,7.03-15.67,15.67s7.03,15.67,15.67,15.67,15.67-7.03,15.67-15.67-7.03-15.67-15.67-15.67Zm133.2-3.71c9.48,0,17.51,6.79,19.09,16.15l.23,1.38h5.22c2.84,0,5.16-2.31,5.16-5.16v-40.21h-40.21c-4.89,0-8.86-3.98-8.86-8.86V45.77h-10.31v54.23c0,1.02-.83,1.85-1.85,1.85H3.71v26.19c0,2.84,2.31,5.16,5.16,5.16h5.22l.23-1.38c1.58-9.36,9.61-16.15,19.09-16.15s17.51,6.79,19.09,16.15l.23,1.38h94.56l.23-1.38c1.58-9.36,9.61-16.15,19.09-16.15ZM3.71,98.15H133.2V45.77H3.71v52.38Zm147.22-19.18c0,2.84,2.31,5.16,5.16,5.16h38.66l-20.69-36.38-.05-.07c-.82-1.14-2.45-1.9-4.03-1.9h-19.03v33.2ZM3.71,42.06H133.2v-10.31H3.71v10.31Zm0-14.02H133.2V3.71H3.71V28.04Z"/>
  </g>
</svg>