<?xml version="1.0" encoding="UTF-8"?>
<svg id="Layer_2" data-name="Layer 2" xmlns="http://www.w3.org/2000/svg" viewBox="0 0 200 200.02">
  <defs>
    <style>
      .cls-1 {
        fill: #c09551;
      }
    </style>
  </defs>
  <g id="Layer_2-2" data-name="Layer 2">
    <g>
      <path class="cls-1" d="M100,45.37c-.13,0-.27-.01-.42-.04-.28-.05-29.23-5.24-38.2-7.63-14.67-3.9-22.46-13.38-20.34-24.73,.78-4.16,3.38-7.75,7.31-10.1,3.2-1.91,6.93-2.87,11.1-2.87,3.06,0,6.27,.53,9.54,1.58,14.81,4.74,24.18,19.46,29.43,30.97l1.59,3.48,1.59-3.48c5.25-11.51,14.61-26.23,29.42-30.97C134.28,.53,137.48,0,140.54,0c4.17,0,7.91,.97,11.1,2.87,3.94,2.35,6.53,5.93,7.31,10.09,2.12,11.35-5.67,20.83-20.34,24.73-8.98,2.39-37.91,7.58-38.2,7.63-.14,.02-.28,.04-.41,.04ZM59.49,4.68c-3.32,0-6.34,.76-8.75,2.2-2.77,1.66-4.59,4.13-5.12,6.96-2.46,13.14,12.36,18.15,16.96,19.38,6.04,1.61,21.89,4.61,30.8,6.26l3.18,.59-1.25-2.98c-4.03-9.58-13-26.34-27.73-31.06-2.76-.89-5.48-1.33-8.08-1.33Zm81.02,0c-2.59,0-5.31,.45-8.08,1.33-14.74,4.72-23.7,21.49-27.73,31.07l-1.25,2.98,3.18-.59c8.91-1.65,24.75-4.65,30.8-6.26,4.6-1.22,19.42-6.24,16.97-19.38-.53-2.83-2.35-5.3-5.12-6.96-2.41-1.44-5.44-2.2-8.76-2.2Z"/>
      <path class="cls-1" d="M10.47,200.02c-1.28,0-2.33-1.04-2.33-2.33V94.2H2.33c-1.28,0-2.33-1.04-2.33-2.33V51.18c0-1.28,1.04-2.33,2.33-2.33H197.67c1.28,0,2.33,1.04,2.33,2.33v40.7c0,1.28-1.04,2.33-2.33,2.33h-5.81v103.49c0,1.28-1.04,2.33-2.33,2.33H10.47Zm108.14-4.65h68.6V94.2H118.61v101.16Zm-32.56,0h27.9V53.51h-27.9V195.36Zm-73.25,0H81.39V94.2H12.79v101.16ZM118.61,89.55h76.74V53.51H118.61v36.04Zm-113.95,0H81.39V53.51H4.65v36.04Z"/>
    </g>
  </g>
</svg>