<?xml version="1.0" encoding="UTF-8"?>
<svg id="Layer_2" data-name="Layer 2" xmlns="http://www.w3.org/2000/svg" viewBox="0 0 940.17 370.56">
  <defs>
    <style>
      .cls-1, .cls-2 {
        fill: #fff;
      }

      .cls-3 {
        fill: #00ae41;
      }

      .cls-3, .cls-2, .cls-4 {
        fill-rule: evenodd;
      }

      .cls-4 {
        fill: #029835;
      }
    </style>
  </defs>
  <g id="Layer_1-2" data-name="Layer 1">
    <g>
      <g>
        <path class="cls-4" d="M185.28,0C287.62,0,370.56,82.94,370.56,185.28s-82.94,185.28-185.28,185.28S0,287.62,0,185.28,82.94,0,185.28,0Z"/>
        <path class="cls-2" d="M109.42,115.16h154.97v114.33H109.42V115.16Zm104.01,95.93c-1.67,1-3.08,.33-4.58-1.17l-24.15-23.9-24.4,24.15c-1.5,1.5-3.08,2.25-4.75,1-.25-.17-3.08-3.08-3.25-3.25-1-1.67-.33-3.08,1.17-4.58l24.15-24.32-8.41-8.33c-8.58,5.66-17.57,.67-23.32-6.5-2.5-3.16-5.75-9.58-6.83-15.49-.67-3.41-.58-6.58,.17-9.33,1.08-3.66,2.17-4.75,5.83-5.83,2.66-.75,5.83-.83,9.24-.17,6,1.17,12.41,4.33,15.49,6.83,7.16,5.75,12.16,14.74,6.5,23.32l8.33,8.41,7.74-7.83c-.17-3.66-.17-7.83,.25-9.66,.33-1.5,1.25-2.41,3.41-4.41l21.98-19.49c3.83-4,6.66-1.25,2.5,2.58l-14.57,13.74c-1.67,1.58-2.66,3-.83,4.91,1.92,1.92,3.08,.83,4.58-.67l15.16-15.16c1.17-1.33,2.75-1.5,3.41-.67,.83,.67,.58,2.25-.67,3.41l-15.16,15.16c-1.5,1.5-2.58,2.66-.67,4.58,1.83,1.92,3.33,.83,4.91-.83l13.74-14.57c3.83-4.08,6.66-1.33,2.58,2.5l-19.49,21.98c-2,2.17-2.91,3.08-4.41,3.41-1.75,.42-5.91,.5-9.66,.25l-7.83,7.74,23.9,24.07c1.5,1.5,2.25,3.08,1,4.75-.17,.25-3.08,3.08-3.25,3.25l.17,.08ZM116.08,111.08c-1.08,0-1.42-1.42,0-2.58l39.8-37.06h61.95l39.8,37.06c1.42,1.17,1.08,2.58,0,2.58H116.08Zm-.67-22.4l.33,16.4,30.23-28.23h-17.9c-7.74-.17-13.24,4.16-12.66,11.82Zm142.81,0l-.33,16.4-30.23-28.23h17.9c7.74-.17,13.24,4.16,12.66,11.82Zm-87.02-4.25h31.14c1.67,0,3,1.33,3,3v4.5c0,.17,0,.42-.08,.58h-37.06c0-.17-.08-.42-.08-.58v-4.5c0-1.67,1.33-3,3-3h.08Z"/>
        <path class="cls-1" d="M94.43,281.21h12.32v19.49l-.5,.17c-.42,.17-.83,.25-1.25,.42s-.92,.25-1.5,.42h0c-1.08,.25-2.25,.5-3.58,.67h0l-2,.25c-.67,.08-1.33,.08-2,.08h0c-2.75,0-5.16-.33-7.33-1.08h0c-1.08-.33-2.08-.83-3-1.42s-1.75-1.25-2.58-2h0c-.5-.5-1-1.08-1.5-1.75-.42-.58-.83-1.25-1.25-2l-1-2.25c-.25-.75-.5-1.58-.67-2.5-.17-.83-.33-1.75-.42-2.66s-.17-1.83-.17-2.83h0c0-1.25,.08-2.41,.25-3.5s.42-2.17,.67-3.16c.33-1,.67-1.92,1.08-2.83s.92-1.75,1.5-2.5,1.17-1.5,1.92-2.08c.67-.67,1.42-1.25,2.17-1.75s1.58-1,2.5-1.33c.83-.42,1.75-.75,2.66-1s1.92-.42,2.91-.58,2-.17,3.08-.17c.58,0,1.17,0,1.75,.08,.58,0,1.17,.08,1.67,.17l1.5,.25c.5,.08,.92,.17,1.33,.33h0c.42,.08,.83,.25,1.17,.33,.42,.17,.75,.25,1,.42l.5,.25-.17,.58-1.42,5.58-.25,.83-.83-.33c-.25-.08-.5-.25-.83-.33-.25-.08-.58-.17-.83-.25h0c-.33-.08-.58-.17-1-.25-.33-.08-.75-.17-1.08-.17h0c-.42-.08-.83-.08-1.25-.08h-1.42c-.75,0-1.5,.08-2.17,.17s-1.33,.25-2,.5c-.58,.25-1.17,.5-1.75,.83-.5,.33-1,.75-1.5,1.25-.42,.5-.83,1-1.25,1.58-.33,.58-.67,1.25-.92,2h0c-.25,.75-.42,1.5-.58,2.41s-.17,1.83-.25,2.83c0,1,.08,1.92,.17,2.75s.33,1.67,.58,2.33c.25,.75,.5,1.42,.83,2s.67,1.08,1.17,1.58h0c.42,.5,.92,.92,1.33,1.25h0c.5,.33,1,.67,1.58,.92h0c.58,.25,1.17,.42,1.83,.5,.58,.08,1.25,.17,2,.17h1.08c.33,0,.67-.08,.92-.08h0c.25-.08,.5-.08,.67-.17h0v-7.33h-5.08v-6.83h.75l.42-.17Zm32.06-6.33c.17,0,.25,.08,.33,.08l.58,.08v7.99l-.83-.17c-.08,0-.25,0-.33-.08h-1.25c-.5,0-.92,.08-1.25,.17-.42,.08-.75,.25-1.08,.42s-.67,.42-.92,.75-.5,.67-.75,1.08h0c-.17,.42-.33,.92-.5,1.42-.08,.58-.17,1.17-.17,1.83h0v13.91h-8.24v-22.65h0c0-.67,0-1.25-.08-1.92,0-.58-.08-1.17-.08-1.75v-.75h7.24l.08,.67,.17,2.08c.25-.33,.42-.58,.67-.92h0c.33-.42,.75-.75,1.17-1.08s.83-.58,1.33-.75h0c.42-.25,.92-.33,1.33-.5,.5-.08,.92-.17,1.42-.17h.92c.17,0,.25,0,.42,.08l-.17,.17Zm24.81,9.16c.08,.67,.08,1.42,.08,2.17h0v11.49h0c0,.33,0,.67,.08,1.08,0,.33,0,.67,.08,1h0c0,.33,.08,.58,.08,.92,0,.25,.08,.58,.08,.83l.17,.83h-7.49l-.08-.58-.17-1.25c-.33,.33-.67,.58-1,.83h0c-.42,.25-.75,.5-1.17,.67s-.83,.33-1.33,.5-.92,.25-1.42,.33-1,.08-1.5,.08h0c-1.25,0-2.41-.25-3.5-.67h0c-.5-.25-1-.5-1.42-.75-.42-.33-.83-.67-1.25-1.08h0l-1-1.25c-.25-.42-.5-.92-.67-1.42h0c-.17-.5-.33-1-.42-1.58-.08-.5-.17-1.08-.17-1.67h0c0-.92,.08-1.67,.25-2.5,.17-.75,.5-1.5,.83-2.17h0c.33-.67,.83-1.25,1.33-1.83,.5-.5,1.08-1,1.75-1.42s1.42-.75,2.17-1.08,1.58-.58,2.5-.75,1.83-.33,2.75-.42c.75-.08,1.5-.08,2.25-.17,0-.17,0-.25-.08-.33-.08-.33-.17-.67-.25-.92h0c-.08-.25-.25-.5-.42-.67s-.42-.42-.67-.5h0c-.25-.17-.58-.25-1-.33s-.92-.17-1.5-.17-1.08,.08-1.67,.08c-.5,.08-1.08,.17-1.58,.33h0c-.5,.17-1,.33-1.42,.5s-.83,.42-1.25,.67l-.83,.5-.25-.92-1.25-4.41-.17-.5,.5-.25c.33-.17,.67-.33,1-.58l1.25-.5c.5-.17,.92-.33,1.5-.5,.5-.17,1.08-.25,1.67-.33s1.17-.17,1.83-.25,1.25-.08,2-.08h0c1,0,2,.08,2.83,.25,.92,.17,1.67,.42,2.41,.67h0c.75,.33,1.33,.67,1.92,1.08s1.08,.92,1.5,1.5c.42,.5,.75,1.08,1.08,1.75,.25,.58,.5,1.25,.67,1.92h0c.17,.67,.25,1.33,.33,2.08v-.25Zm-8.08,9.74c.08-.33,.08-.58,.08-1h0v-2.91h-.58c-.42,0-.92,.08-1.33,.17h0c-.42,.08-.75,.17-1.17,.25-.33,.08-.75,.25-1,.42-.33,.17-.58,.33-.83,.5s-.42,.42-.58,.67h0c-.17,.25-.25,.5-.42,.83-.08,.33-.17,.67-.17,1.08,0,.33,0,.67,.08,.92s.17,.5,.25,.67h0c.08,.17,.25,.33,.42,.5s.33,.25,.5,.33h0c.42,.17,.83,.25,1.25,.25,.17,0,.33,0,.5-.08,.17,0,.42-.08,.58-.17h0c.17-.08,.42-.17,.58-.25s.42-.25,.58-.42,.33-.25,.5-.5c.17-.17,.25-.42,.42-.67h0l.25-.75,.08,.17Zm22.15-29.06v12.49l.17-.17c.5-.5,1.08-.92,1.75-1.25h0c.67-.33,1.33-.58,2.17-.75,.75-.17,1.58-.25,2.41-.25h0c.75,0,1.5,.08,2.17,.25s1.33,.42,2,.75h0c.58,.33,1.17,.75,1.75,1.25,.5,.5,1,1,1.5,1.58h0c.42,.58,.83,1.25,1.17,2h0c.33,.75,.58,1.5,.83,2.33h0c.25,.83,.42,1.67,.5,2.58s.17,1.83,.17,2.83h0c0,1-.08,1.83-.17,2.75-.08,.83-.25,1.67-.42,2.41s-.42,1.5-.75,2.17c-.25,.67-.58,1.33-.92,1.92h0c-.33,.58-.75,1.08-1.17,1.58s-.83,.92-1.33,1.33-1,.75-1.5,1c-.5,.33-1,.5-1.58,.75-.58,.17-1.08,.33-1.67,.42h0c-.58,.08-1.17,.17-1.67,.17h0c-.75,0-1.5-.08-2.25-.25s-1.42-.42-2-.75h0c-.67-.33-1.25-.83-1.83-1.42-.17-.17-.25-.33-.42-.42l-.17,1.67-.08,.67h-7.16v-.75c0-.33,0-.67,.08-1,0-.33,0-.75,.08-1.08h0v-35.47h8.24v.75l.08-.08Zm.08,20.57c-.08,.33-.08,.67-.08,1.08h0v5h0c0,.42,.08,.83,.17,1.25s.25,.75,.42,1.08h0c.17,.33,.33,.67,.58,.92s.5,.5,.75,.67,.58,.33,.92,.42,.67,.17,1.08,.17c.5,0,.92-.08,1.25-.25,.42-.17,.75-.33,1.08-.58h0c.33-.25,.58-.58,.83-1s.5-.92,.67-1.42h0c.17-.58,.33-1.17,.42-1.83s.17-1.42,.17-2.17c0-.5,0-1-.08-1.5s-.17-.92-.25-1.42c-.08-.42-.25-.83-.33-1.25-.17-.33-.33-.75-.5-1-.17-.33-.42-.58-.58-.83-.25-.25-.5-.42-.75-.58h0c-.25-.17-.58-.25-.83-.33-.33-.08-.67-.17-1-.17h0c-.25,0-.5,0-.67,.08-.25,.08-.42,.17-.67,.25h0c-.25,.08-.42,.25-.67,.42h0c-.17,.17-.42,.33-.58,.58-.17,.17-.33,.42-.5,.67s-.25,.5-.42,.83c-.08,.25-.17,.58-.25,.92h-.17Zm29.56,2.25v14.74h-8.24v-36.72h20.32v7.16h-12.07v7.83h11.24v7.08h-11.24v-.08Zm23.4-11.91h0c1.58-.67,3.25-.92,5.08-.92h0c.92,0,1.83,.08,2.66,.25s1.67,.42,2.41,.75h0c.75,.33,1.5,.75,2.08,1.25,.67,.5,1.25,1,1.83,1.67,.58,.58,1,1.33,1.42,2,.42,.75,.75,1.5,1,2.33h0c.25,.83,.5,1.75,.67,2.66s.25,1.92,.25,2.91-.08,1.92-.17,2.83-.33,1.75-.58,2.5h0c-.25,.75-.5,1.5-.83,2.17s-.75,1.33-1.17,1.83h0c-.42,.58-.83,1.08-1.33,1.5-.5,.5-1,.92-1.58,1.25h0c-.5,.33-1.08,.67-1.67,.92s-1.17,.5-1.75,.67h0c-.58,.17-1.17,.25-1.83,.33-.58,.08-1.25,.08-1.83,.08h0c-.92,0-1.75-.08-2.58-.25s-1.67-.42-2.41-.67h0c-.75-.33-1.5-.67-2.17-1.17s-1.25-1-1.83-1.58-1.08-1.25-1.5-2-.83-1.5-1.08-2.41h0c-.33-.83-.5-1.75-.67-2.75h0c-.17-.92-.25-2-.25-3.08s.08-2.17,.25-3.16,.42-1.92,.75-2.83c.33-.83,.67-1.67,1.17-2.41,.42-.75,1-1.42,1.58-2.08,.58-.58,1.25-1.17,1.92-1.58h0c.67-.5,1.42-.83,2.17-1.17v.17Zm8.83,16.07c.17-.92,.33-2,.33-3.08,0-.5,0-1-.08-1.42-.08-.5-.08-.92-.17-1.42-.08-.42-.17-.92-.33-1.33s-.33-.83-.5-1.17h0c-.17-.33-.33-.67-.58-.92s-.42-.5-.75-.67h0c-.25-.17-.5-.33-.83-.42s-.67-.17-1-.17-.58,0-.92,.08l-.75,.25c-.25,.17-.42,.33-.67,.5l-.58,.58h0c-.17,.25-.33,.5-.5,.83-.17,.25-.25,.58-.42,.92h0c-.08,.33-.25,.67-.33,1s-.17,.67-.17,1.08c-.08,.42-.08,.75-.08,1.17h0v1.17c0,.58,0,1.08,.08,1.58l.25,1.5h0c.08,.5,.25,.92,.42,1.33s.33,.75,.5,1.08h0c.17,.33,.42,.67,.67,.92s.5,.5,.75,.67h0c.25,.17,.5,.33,.83,.42h0c.33,.08,.58,.17,.92,.17s.67-.08,.92-.17,.58-.25,.83-.42h0c.25-.17,.5-.42,.75-.67s.42-.58,.58-.92h0c.17-.33,.33-.75,.5-1.17s.25-.83,.33-1.33Zm19.49-16.07h0c1.58-.67,3.25-.92,5.08-.92h0c.92,0,1.83,.08,2.66,.25s1.67,.42,2.41,.75h0c.75,.33,1.5,.75,2.08,1.25,.67,.5,1.25,1,1.83,1.67,.58,.58,1,1.33,1.42,2,.42,.75,.75,1.5,1,2.33h0c.25,.83,.5,1.75,.67,2.66s.25,1.92,.25,2.91-.08,1.92-.17,2.83-.33,1.75-.58,2.5h0c-.25,.75-.5,1.5-.83,2.17s-.75,1.33-1.17,1.83h0c-.42,.58-.83,1.08-1.33,1.5-.5,.5-1,.92-1.58,1.25h0c-.5,.33-1.08,.67-1.67,.92s-1.17,.5-1.75,.67h0c-.58,.17-1.17,.25-1.83,.33-.58,.08-1.25,.08-1.83,.08h0c-.92,0-1.75-.08-2.58-.25s-1.67-.42-2.41-.67h0c-.75-.33-1.5-.67-2.17-1.17s-1.25-1-1.83-1.58-1.08-1.25-1.5-2-.83-1.5-1.08-2.41h0c-.33-.83-.5-1.75-.67-2.75h0c-.17-.92-.25-2-.25-3.08s.08-2.17,.25-3.16,.42-1.92,.75-2.83c.33-.83,.67-1.67,1.17-2.41,.42-.75,1-1.42,1.58-2.08,.58-.58,1.25-1.17,1.92-1.58h0c.67-.5,1.42-.83,2.17-1.17v.17Zm8.83,16.07c.17-.92,.33-2,.33-3.08,0-.5,0-1-.08-1.42-.08-.5-.08-.92-.17-1.42-.08-.42-.17-.92-.33-1.33s-.33-.83-.5-1.17h0c-.17-.33-.33-.67-.58-.92s-.42-.5-.75-.67h0c-.25-.17-.5-.33-.83-.42s-.67-.17-1-.17-.58,0-.92,.08l-.75,.25c-.25,.17-.42,.33-.67,.5l-.58,.58h0c-.17,.25-.33,.5-.5,.83-.17,.25-.25,.58-.42,.92h0c-.08,.33-.25,.67-.33,1s-.17,.67-.17,1.08c-.08,.42-.08,.75-.08,1.17h0v1.17c0,.58,0,1.08,.08,1.58l.25,1.5h0c.08,.5,.25,.92,.42,1.33s.33,.75,.5,1.08h0c.17,.33,.42,.67,.67,.92s.5,.5,.75,.67h0c.25,.17,.5,.33,.83,.42h0c.33,.08,.58,.17,.92,.17s.67-.08,.92-.17,.58-.25,.83-.42h0c.25-.17,.5-.42,.75-.67s.42-.58,.58-.92h0c.17-.33,.33-.75,.5-1.17s.25-.83,.33-1.33Zm29.14-27.81h7.49v32.98h0v2.5h0c0,.75,.08,1.5,.08,2.17v.75h-7.33l-.08-.67-.17-1.75c-.25,.33-.58,.58-.83,.83h0c-.42,.33-.83,.67-1.25,.92s-.92,.5-1.42,.67-1,.33-1.58,.42c-.5,.08-1.08,.17-1.67,.17h0c-.75,0-1.5-.08-2.25-.25s-1.42-.42-2.08-.75h0c-.67-.33-1.25-.75-1.83-1.25s-1.08-1-1.58-1.67h0c-.5-.58-.92-1.25-1.25-2s-.67-1.5-.92-2.33h0c-.25-.83-.42-1.67-.58-2.66-.17-.92-.17-1.83-.17-2.91h0c0-1.17,.08-2.17,.25-3.16s.33-1.92,.67-2.83h0c.25-.83,.58-1.67,1-2.41s.83-1.42,1.33-2.08h0c.5-.58,1.08-1.17,1.67-1.58,.58-.5,1.25-.83,1.92-1.17h0c.67-.33,1.33-.58,2.08-.75s1.42-.25,2.17-.25h0c.5,0,1.08,0,1.5,.08,.5,.08,.92,.17,1.42,.33h0l1.25,.5c.42,.17,.75,.42,1.08,.67h0l.25,.25v-12.66h.75l.08-.08Zm-.83,28.4c.08-.42,.08-.83,.08-1.25h0v-4.66h0c0-.42,0-.83-.08-1.17l-.25-1h0c-.08-.33-.25-.58-.42-.83s-.33-.5-.5-.67h0c-.17-.17-.33-.33-.58-.5-.17-.17-.42-.25-.58-.33-.42-.17-.92-.25-1.33-.25h0c-.33,0-.75,.08-1,.17-.33,.08-.58,.25-.83,.42h0c-.25,.17-.5,.42-.75,.58-.25,.25-.42,.5-.67,.83h0c-.17,.33-.33,.67-.5,1.08s-.25,.83-.42,1.25h0c-.08,.42-.17,.92-.25,1.42s-.08,1-.08,1.58c0,.75,.08,1.42,.17,2.08s.25,1.25,.42,1.75h0c.17,.5,.42,1,.67,1.33,.25,.42,.5,.75,.83,1h0c.33,.25,.67,.5,1,.58h0c.42,.17,.83,.17,1.25,.17h0c.25,0,.42,0,.67-.08,.25,0,.42-.08,.67-.17h0c.25-.08,.42-.17,.67-.33,.17-.17,.42-.25,.58-.5h0c.17-.17,.33-.42,.5-.58,.17-.25,.33-.5,.42-.83h0c.08-.33,.25-.67,.25-1l.08-.08Z"/>
      </g>
      <g>
        <g>
          <path class="cls-3" d="M848.07,309.85c0-14.7-1.12-30.33,13.4-40.37,19.53-13.4,50.6-2.6,50.6,24,0,11.53,1.12,20.28-2.79,30.14-1.3,3.35-3.72,7.26-5.77,9.49-9.67,9.86-25.67,12.47-37.58,6.51-3.35-1.67-6.88-3.72-9.3-6.7-4.47-5.58-8.74-12.84-8.74-23.07h.19Zm64-61.4c-2.05-1.3-2.79-2.79-5.4-4.47-2.23-1.49-4.09-2.42-6.7-3.53-13.77-6.51-33.86-4.09-47.44,1.49-19.91,8.19-32.74,30.33-32.74,53.77,0,15.07-.93,26.05,5.02,40,13.77,32.56,51.54,41.67,80.93,29.95,3.72-1.49,6.51-2.98,9.3-5.02,6.33-4.28,7.26-5.58,11.72-10.42,1.3-1.3,1.86-2.6,2.98-4.09,6.33-9.49,10.42-21.58,10.42-34.05v-121.86h-28.09v58.23Z"/>
          <path class="cls-3" d="M612.72,343.16c-4.84,0-9.86-1.3-13.58-2.79-11.16-4.47-19.16-17.49-19.16-30.51s-1.12-26.23,8.74-36.28c20.65-20.47,56.19-8,56.19,24.37,0,12.09,.19,25.49-8.56,34.42-2.79,2.79-5.77,5.58-9.49,7.26-3.53,1.49-9.3,3.35-14.14,3.35v.19Zm-60.84-48.19c0,20.09-.93,32.19,9.86,49.86,14.88,24.37,51.54,31.44,77.02,20.09,3.72-1.67,6.7-3.16,9.86-5.4,1.67-1.3,2.79-2.05,4.28-3.35,7.07-6.14,12.47-13.21,15.63-22.7,6.7-18.98,6.88-52.84-4.47-70.14-2.42-3.91-6.51-9.3-9.86-12.09-1.67-1.3-2.05-2.05-3.91-3.35-15.44-10.42-24.19-11.35-42.98-11.35-14.7,0-30.14,7.26-39.81,16.93-9.86,10.05-16,26.79-16,41.3l.37,.19Z"/>
          <path class="cls-3" d="M745.75,343.16c-13.21,0-25.12-7.63-29.77-19.35-3.91-9.67-2.98-16.19-2.98-26.6,0-43.91,64.93-45.02,64.93,1.12,0,8.74,.56,15.63-2.42,23.81-1.3,3.53-3.91,8.37-6.14,10.6-6.33,6.51-13.95,10.6-23.63,10.6v-.19Zm-60.84-48.19v15.81c0,33.67,24.56,59.35,59.35,59.35,10.79,0,19.53-1.49,27.54-5.21,5.77-2.6,9.49-4.65,14.14-8.74,18.42-16,20.09-34.98,20.09-58.23,0-14.7-3.53-27.91-11.72-39.07-5.58-7.63-11.72-12.28-20.28-16.56-15.63-7.81-40.74-7.81-56.56-.56-13.21,6.14-22.7,15.81-28.09,29.21-2.6,6.33-4.84,15.26-4.84,23.81l.37,.19Z"/>
          <path class="cls-3" d="M447.89,211.06v155.16c0,1.12,.37,1.49,1.49,1.49h26.05c1.12,0,1.49-.37,1.49-1.49v-59.91h57.86v-27.16h-57.86v-42.42h64v-25.67c0-1.12-.37-1.49-1.49-1.49h-90.05c-1.12,0-1.49,.37-1.49,1.49Z"/>
        </g>
        <g>
          <path class="cls-3" d="M447.87,103.7c0,20.66,.57,29.27,10.14,47.26,1.15,2.1,2.3,4.02,3.64,5.93,2.68,4.02,5.36,6.89,8.8,10.14,7.46,7.46,11.48,10.52,21.62,15.69,21.43,10.91,53.38,9.57,74.05-1.72,4.4-2.3,8.23-4.4,12.05-7.84,1.53-1.34,7.46-5.93,7.46-8.23V99.68h-63.14v12.63h50.51v48.41c0,2.3-5.74,5.93-7.65,7.08-3.44,2.1-6.12,3.64-10.14,5.17-26.21,9.57-56.25,5.55-76.34-14.35-9.18-8.99-18.56-26.21-18.56-44.01,0-13.39,.38-24.49,7.27-35.97l14.16-18.37c18.56-14.92,29.66-18.94,54.34-18.94,6.7,0,13.2,.96,18.75,2.3l11.67,4.21c1.15,.57,2.49,1.34,3.83,1.91v-14.16c-5.55-1.34-4.78-2.68-17.79-4.78-17.99-3.06-38.46-1.72-54.53,5.17-8.04,3.44-18.18,9.18-24.11,15.31-4.21,4.4-4.21,3.25-9.57,9.95-1.72,2.1-2.68,3.44-4.21,5.74s-2.3,3.83-3.83,6.31c-4.59,7.65-8.61,21.81-8.61,30.8l.19-.38Z"/>
          <path class="cls-3" d="M676.32,110.59c0,16.07-1.34,26.98,5.93,41.33,2.49,5.17,8.23,13.2,12.44,17.03,14.73,12.82,30.8,20.28,52.04,16.26,3.64-.77,6.31-2.1,8.42-2.49v-12.63c-13.2,3.06-20.47,6.89-37.31-.57-3.06-1.34-4.78-2.3-7.46-4.21-4.21-2.87-8.8-7.08-11.86-11.29-11.29-15.12-9.57-25.64-9.57-43.62,0-5.74,2.87-13.39,4.78-17.41,6.31-13.78,23.92-26.79,40.56-26.79,14.16,0,23.34,2.49,33.87,11.48,10.33,8.8,16.65,21.24,16.65,35.4v73.09h12.63V112.5c0-8.23-2.68-17.6-5.55-23.34-4.97-9.95-4.59-8.61-10.33-15.5-8.99-11.1-27.36-20.09-42.09-20.09h-5.36c-30.42,0-57.97,29.47-57.97,56.83l.19,.19Z"/>
          <path class="cls-3" d="M805.28,124.75c1.72-1.15,12.82-15.5,14.92-17.79l15.5-17.03c14.16-14.16,23.53-23.53,45.92-23.53,11.67,0,23.34,6.12,31.19,13.97l.57,.57c13.97,15.12,13.97,25.26,13.97,44.96,0,45.35-59.7,66.39-87.06,26.98-1.91-2.87-5.74-9.76-6.12-13.97-1.53,.38-1.53,1.15-2.49,2.3-.96,.96-1.34,1.53-2.1,2.68-.57,.57-4.21,4.97-4.21,5.17,0,7.84,11.67,21.24,19.13,26.21,43.24,29.27,95.67-3.25,95.67-50.51v-10.52c0-18.18-8.04-32.53-17.22-41.71-5.55-5.55-9.38-8.99-16.84-12.63-18.75-9.57-41.52-8.04-58.93,4.02l-7.84,5.74c-6.7,5.17-12.25,11.1-17.99,17.22-.96,1.15-.96,1.34-1.91,2.3-.96,1.15-1.34,1.34-2.3,2.49-1.34,1.72-2.68,3.25-4.02,4.97-10.71,12.05-7.84,10.33-7.84,28.13Z"/>
          <path class="cls-3" d="M468.91,107.53v4.21c0,31.19,25.64,57.4,56.83,57.4,10.52,0,22.96-1.91,31.57-6.31,1.53-.77,6.89-3.83,6.89-5.74v-36.35h-41.52v12.63h30.04v18.37c-9.76,2.3-11.67,4.78-26.4,4.78-25.26,0-44.77-19.9-44.77-45.35v-4.78c0-13.2,8.04-25.26,15.5-31.38,15.69-13.2,36.35-15.5,56.83-10.33,3.06,.77,6.51,2.1,9.18,3.44,2.87,1.53,5.17,3.44,7.46,5.17v-15.31c-2.49-.57-5.36-2.49-8.23-3.44-21.62-7.46-46.11-7.27-65.63,4.78l-8.8,6.51c-9.76,8.99-19.13,22.96-19.13,41.52l.19,.19Z"/>
          <path class="cls-3" d="M805.28,159c.77-.57,24.87-31,30.61-37.31,6.51-6.89,12.44-14.54,19.52-21.62,9.38-9.38,20.47-17.22,35.59-10.14,13.01,6.12,15.31,17.22,15.31,31.95,0,9.95-2.1,15.12-6.51,20.86-5.17,6.7-12.82,9.18-21.81,9.18-14.16,0-26.79-19.52-26.79-34.25-2.1,1.34-8.04,10.52-10.52,12.05,1.91,4.02,2.3,13.01,12.25,22.96,5.93,5.93,14.73,11.67,24.11,11.67,7.84,0,12.44-.19,19.52-3.64,11.67-5.74,22-19.32,22-32.72,0-18.56,1.91-28.13-12.25-42.48-5.55-5.55-15.88-11.1-26.79-11.1s-21.62,6.89-27.55,12.05c-6.51,5.74-21.81,22.77-28.51,30.42-2.49,3.06-17.03,19.9-17.99,22-1.15,2.87-.38,15.5-.38,19.71l.19,.38Z"/>
          <path class="cls-3" d="M697.37,113.84c0,15.12-.96,26.79,11.1,38.84,10.71,10.71,24.87,15.12,39.41,10.71,4.4-1.34,5.55-2.68,7.27-3.25v-13.78c-21.43,14.35-45.35,.38-45.35-20.09v-12.63c0-21.43,27.17-36.74,46.11-17.79,4.78,4.78,7.46,11.1,7.46,20.47v70.03h12.63V116.33c0-30.42-27.74-49.56-55.3-38.08-3.64,1.53-8.8,5.17-11.67,7.84-.96,.96-1.34,1.53-2.1,2.68-5.93,7.08-9.76,14.92-9.76,24.87l.19,.19Z"/>
          <path class="cls-3" d="M598.83,112.7v73.66h12.63V112.7c0-17.22,10.14-35.4,26.02-41.9,12.44-5.17,27.36-6.51,40.18-.96,1.72,.77,2.68,1.53,4.4,1.91,.77-3.06,7.08-7.08,7.84-9.95-.96-.19-6.7-3.44-12.05-5.36-7.65-2.68-13.39-2.49-21.62-2.49-18.37,0-36.93,10.33-46.88,25.26-6.12,9.38-10.52,21.05-10.52,33.67v-.19Z"/>
          <path class="cls-3" d="M619.88,117.48v67.35c0,2.68,5.17,1.53,12.63,1.53V116.9c0-20.47,13.39-31.95,33.1-28.89,1.91,.38,3.83,1.34,5.93,1.53,.96-1.91,1.53-3.44,2.49-5.36,.77-1.72,2.49-4.21,2.87-5.55-1.72-.38-2.3-.96-3.83-1.53-14.54-5.36-31.95-.57-42.48,10.14-7.46,7.65-10.71,18.94-10.71,30.42v-.19Z"/>
          <path class="cls-3" d="M817.91,78.06c1.91-1.34,5.93-7.46,11.1-11.48,.77-.57,1.53-.77,1.53-2.1V.19h-12.63V78.06Z"/>
          <path class="cls-3" d="M838.95,60.08c3.44-1.72,5.74-4.4,9.57-6.7,1.15-.77,3.06-1.34,3.06-2.87V0h-12.63V60.08Z"/>
        </g>
      </g>
    </g>
  </g>
</svg>