<?xml version="1.0" encoding="UTF-8"?>
<svg xmlns="http://www.w3.org/2000/svg" viewBox="0 0 216.78 277.06">
  <defs>
    <style>
      .cls-1 {
        fill: #fff;
      }

      .cls-2 {
        isolation: isolate;
      }

      .cls-3 {
        fill: #f5d3b7;
      }

      .cls-4 {
        fill: #bf9451;
      }

      .cls-5 {
        fill: #fff0d7;
      }

      .cls-6 {
        fill: #f33b3d;
      }

      .cls-7 {
        fill: #c62242;
        mix-blend-mode: multiply;
        opacity: .5;
      }

      .cls-8 {
        fill: #fff0dd;
      }

      .cls-9 {
        fill: #fbdbd8;
      }
    </style>
  </defs>
  <g class="cls-2">
    <g id="Layer_2" data-name="Layer 2">
      <g id="Layer_1-2" data-name="Layer 1">
        <g>
          <path class="cls-8" d="M12.71,227.53c4.72,10.39,12.31,15.78,22.52,23.03,7.7,5.47,14.86,9.02,20.28,11.33,12.35,3.64,29.34,7.25,49.7,7.5,25.44,.32,46.17-4.72,59.96-9.27,3.2-1.31,7.75-3.49,12.64-7.04,4.73-3.44,12.68-9.23,17.3-19.94,.74-1.71,5.3-12.7,2.64-25.73-1.58-7.75-4.18-8.7-4.82-16.27-.65-7.67,1.48-11.13,2.72-18.55,.95-5.69,1.19-14.13-2.68-25.23,3.09-1.64,9.28-5.47,13.62-12.92,1.46-2.51,4.05-6.94,4.13-12.84,.12-9.61-6.27-16.22-9.95-20.05-9.96-10.37-22.36-12.44-25.31-12.86-5.93-.84-21.79-3.1-31.63,7.98-8.6,9.69-6.64,22.88-6.25,25.22-7.19-2.2-16.04-4.29-26.26-5.4-12.76-1.38-23.88-.84-32.58,.23,.2-.74,3.86-15.44-6.7-26.31-9.37-9.65-22.06-8.16-23.42-7.97-6.11,.41-16.16,2.06-26.03,8.69-5.79,3.88-16.54,11.1-18.14,23.72-1.21,9.53,3.43,17.12,4.12,18.22,2.99,4.74,6.75,7.5,8.97,8.88-7.64,24.51-7.83,34.91-6.14,39.63,.25,.69,1.14,3.43,1.06,7.1-.12,5.27-2.24,9.03-2.95,10.5-5,10.33,2.09,25.92,3.2,28.36Z"/>
          <path class="cls-4" d="M81.94,121.46c18.84-5.46,39.36-3.55,56.59,4.98,3.21,1.59,7.01-1.03,6.09-4.68-1.33-5.31-1.78-11.24,.58-16.34,1.89-4.09,5.04-6.8,9.05-8.88,8.33-4.3,19.13-4.4,28.27-1.82,3.9,1.1,7.61,2.73,10.96,5.02,.35,.24,.69,.48,1.03,.73,.27,.2,.54,.4,.8,.6-.78-.59,.01,.02,.31,.26,1.38,1.12,2.7,2.3,3.96,3.55,6.17,6.15,10.91,14.39,8.03,23.4-.73,2.29-2.07,4.59-3.48,6.3-.87,1.04-1.82,2.02-2.83,2.93-.93,.84-1.58,1.36-2.28,1.85-1.59,1.13-3.26,2.14-5,3.02-.64,.32-1.3,.6-1.94,.91-.16,.08,1.03-.41,.21-.09-.14,.06-.29,.11-.43,.17-2.09,.79-3.53,2.8-2.9,5.1,.55,2.01,3,3.69,5.1,2.9,7.94-3,15.55-8.57,19.57-16.17,3.05-5.76,3.93-12.39,2.41-18.73-1.31-5.47-4.35-10.35-7.96-14.59-13.17-15.5-36.33-21.73-55.3-13.73-5.74,2.42-10.94,6.33-14.07,11.81-4.18,7.32-4.1,16.05-2.1,24.02,2.03-1.56,4.06-3.12,6.09-4.68-19.53-9.66-42.01-11.9-62.98-5.82-5.12,1.48-2.94,9.49,2.21,8h0Z"/>
          <path class="cls-4" d="M115.7,213.62c.23,3.36-4.56,6.7-8.9,6.73-4.56,.03-9.46-3.61-9.13-6.99,.31-3.17,5.13-5.34,8.93-5.34,3.91,0,8.88,2.31,9.11,5.61Z"/>
          <path class="cls-4" d="M84.83,118.56c1.65-10.5,0-21.52-7.2-29.74-7.13-8.14-18.51-11.01-28.98-10.54-10.5,.47-20.73,3.81-29.24,10.02C9.75,95.35,1.4,105.49,.13,117.76c-1.29,12.42,7.16,22.71,17.41,28.51,4.65,2.63,8.84-4.53,4.19-7.16-6.6-3.73-13.1-9.82-13.41-18.19-.36-9.63,6.36-18.09,13.37-23.95,6.67-5.56,15.09-9.13,23.51-10.11,7.99-.93,16.82-.17,23.42,4.84,4.39,3.33,7,8.3,8.06,13.63,.45,2.25,.56,4.56,.5,6.85-.03,.97-.09,1.94-.19,2.91-.03,.34-.07,.68-.12,1.02,.14-1.18,0,0-.05,.25-.35,2.21,.57,4.46,2.9,5.1,1.97,.54,4.75-.67,5.1-2.9h0Z"/>
          <path class="cls-3" d="M29.13,118.52c.09-5.17,3.48-10.16,8.29-12.06,2.16-.85,4.52-1.11,6.84-1.19,2.4-.08,4.84,.02,7.14,.7,6.54,1.94,11.13,8.99,10.27,15.76-.08,.65-9.94,3.53-11.05,3.99-3.66,1.49-7.28,3.86-11.03,5.03-6.16,1.91-10.56-7.14-10.47-12.22Z"/>
          <path class="cls-3" d="M167.66,113.17c6.82-1.1,14.97,2.43,17.95,9.31,.34,.78,2.9,6.97-.45,12.57-.5,.84-2.68,4.47-6.62,5.27-2.3,.47-3.67-.34-12.52-5.31-7.65-4.29-8.95-5-9.7-7.03-1.47-3.99,1.05-8.09,1.46-8.75,3.05-4.96,8.73-5.88,9.88-6.06Z"/>
          <circle class="cls-4" cx="77.48" cy="200.51" r="6.78"/>
          <circle class="cls-4" cx="135.87" cy="200.76" r="6.78"/>
          <path class="cls-9" d="M172.04,228.8c-1.25-3.48-3.5-6.64-6.9-8.3-3.31-1.61-7.37-1.83-10.55,.24-6.31,4.09-7.51,13.08-3.29,19.06,4.25,6.02,11.25,8.93,18.49,7.86,6.81-1.01,12.54-5.69,14.97-12.1,2.83-7.47,.15-16.41-5.97-21.41-1.73-1.42-4.17-1.7-5.87,0-1.46,1.46-1.74,4.44,0,5.87,.52,.43,1.03,.87,1.5,1.36,.17,.17,1.06,1.21,.64,.67,.4,.51,.75,1.07,1.07,1.63,.13,.22,.25,.45,.37,.68,.03,.07,.5,1.19,.21,.42,.41,1.07,.72,2.18,.88,3.31-.11-.83-.03,0-.01,.22,.02,.32,.03,.63,.03,.95,0,.25,0,.51-.02,.76,0,.11-.16,1.31-.01,.41-.09,.56-.21,1.12-.37,1.67-.09,.31-.2,.61-.29,.91-.04,.13-.31,.72-.02,.08-.24,.52-.51,1.03-.81,1.52-.16,.27-.34,.52-.51,.78-.47,.71,.37-.35-.26,.32-.38,.4-.74,.8-1.15,1.17-.22,.2-.45,.4-.68,.59,.14-.11,.62-.41-.02,0-.46,.28-.89,.58-1.37,.84-.26,.14-.53,.27-.79,.4-.77,.4,.59-.16-.31,.13-1.01,.32-2,.61-3.05,.79,.9-.15-.28,0-.62,.02-.63,.03-1.25,0-1.88-.03-.26-.01-1-.17-.07,0-.22-.04-.44-.08-.66-.13-.55-.12-1.07-.3-1.61-.45-.15-.04-.69-.28,0,.02-.23-.1-.46-.21-.68-.32-.64-.33-1.24-.7-1.84-1.11-.61-.42,.68,.62-.27-.2-.2-.18-.41-.35-.61-.54-.44-.41-.86-.85-1.26-1.32-.46-.55,.44,.77-.2-.29-.14-.23-.29-.45-.42-.68-.13-.23-.25-.46-.38-.7-.4-.78,0,.31-.17-.47-.07-.32-.17-.63-.24-.95-.14-.67-.05,.91-.01-.27,0-.26,.02-.54,.01-.8,0-1.16-.21,.45,0,0,.18-.39,.21-.93,.35-1.35,.07-.21,.14-.41,.22-.62-.36,.9,.05-.03,.16-.23,.14-.25,.29-.49,.45-.73,.17-.24,.13-.19-.13,.15,.11-.13,.23-.26,.35-.38,.13-.17,.75-.66,.07-.15,.28-.21,.58-.38,.89-.54-.21,.11-.69,.16,.01,.03,.17-.05,.34-.09,.51-.12,.31-.06,.2-.04-.33,.05,.16,.02,.45,0,.63,0,.87-.05-.61-.23,.17,.02,.31,.1,.63,.18,.95,.28-.68-.23-.09-.03,.24,.16,.2,.12,.39,.25,.59,.37-.71-.45,.14,.13,.27,.25,.18,.17,.34,.35,.52,.52,.62,.59-.13-.34,.28,.35,.17,.28,.35,.55,.5,.84,.1,.17,.19,.35,.27,.54-.15-.37-.14-.32,.04,.15,.75,2.11,2.83,3.52,5.1,2.9,2.04-.56,3.66-2.98,2.9-5.1h0Z"/>
          <path class="cls-9" d="M50.69,223.4c.44-1.23-.21,.34,.13-.33,.15-.3,.3-.59,.48-.87,.13-.22,.28-.44,.43-.64-.41,.56-.04,.06,.06-.04,.22-.21,.43-.44,.65-.65,.17-.16,.81-.55,.14-.13,.2-.12,.39-.25,.59-.37s1.09-.41,.24-.16c.26-.08,.53-.16,.79-.24,.29-.1,.97-.08,0-.04,.42-.02,1.39,.07,.47-.1,.29,.05,.56,.12,.84,.2,.57,.16-.67-.51,.15,.08,.19,.14,.4,.24,.58,.38-.74-.56,.09,.19,.19,.27,.53,.49,.11,.13,0-.04,.16,.24,.32,.48,.46,.72s.26,.5,.4,.75c-.07-.14-.26-.79-.03-.07,.14,.45,.26,.91,.4,1.37,.09,.29,.1,.99,.02-.11,.03,.4,.04,.8,.05,1.2,.01,.78,0,.29,.03,.07-.05,.32-.13,.64-.22,.96-.05,.17-.33,.98-.05,.3-.1,.24-.23,.48-.35,.71s-.26,.46-.4,.69c.05-.08-.69,.99-.37,.57,.33-.43-.51,.58-.45,.51-.27,.3-.56,.59-.86,.86-1.41,1.31-2.91,2.12-4.84,2.56-.27,.06-.55,.1-.82,.16,.84-.19,.33-.03,.1-.02-.57,.03-1.13,.07-1.71,.06-.46,0-.92-.05-1.38-.09,.92,.09,.14,.02-.1-.03-.34-.08-.68-.14-1.02-.23-.51-.13-1.01-.31-1.51-.47-.73-.23-.15-.05,0,.02-.27-.12-.54-.25-.8-.38-.47-.24-.94-.51-1.38-.81-.2-.13-.39-.27-.59-.41,.71,.5-.14-.12-.28-.25-.46-.41-.85-.85-1.28-1.29-.53-.54-.16-.17-.05-.02-.19-.25-.36-.51-.53-.77-.31-.48-.58-.98-.84-1.49-.37-.71-.11-.25-.05-.07-.14-.36-.26-.72-.37-1.09-.09-.31-.17-.61-.24-.92-.03-.13-.22-1.24-.16-.76,.08,.62-.04-.61-.04-.58-.02-.38-.03-.76-.02-1.14,0-.25,.02-.5,.04-.76,.05-1.19-.18,.77,.04-.4,.12-.63,.26-1.24,.44-1.85,.33-1.1,.62-1.77,1.56-3.17,.14-.21,.29-.43,.45-.64-.47,.6,.26-.27,.36-.38,.55-.6,1.14-1.14,1.77-1.65,1.74-1.42,1.47-4.39,0-5.87-1.72-1.72-4.13-1.42-5.87,0-5.62,4.59-8.13,12.16-6.63,19.21,1.45,6.77,6.98,12.11,13.58,13.89,6.66,1.8,13.78-.09,18.59-5.07,2.67-2.76,4.59-6.46,4.53-10.37-.06-3.39-1.43-6.81-3.72-9.31-2.78-3.02-7.24-4.05-11.09-2.68-4.19,1.49-7.04,4.86-8.51,8.98-.73,2.05,.83,4.63,2.9,5.1,2.33,.53,4.32-.71,5.1-2.9h0Z"/>
          <path class="cls-4" d="M93.97,239.19c2.62,0,5.42-.03,7.89-.98,2.62-1.01,5.1-2.66,6.38-5.26,.5-1.01,.73-2.08,.42-3.2-.26-.96-1.01-2.01-1.91-2.48-.96-.51-2.13-.76-3.2-.42-.98,.32-2.01,.94-2.48,1.91-.19,.38-.41,.74-.67,1.07,.22-.28,.43-.56,.65-.84-.34,.41-.71,.78-1.13,1.11,.28-.22,.56-.43,.84-.65-.56,.42-1.16,.77-1.8,1.05,.33-.14,.66-.28,.99-.42-.91,.38-1.86,.61-2.84,.75l1.1-.15c-1.41,.19-2.83,.2-4.25,.2-2.17,0-4.25,1.91-4.15,4.15,.1,2.24,1.82,4.15,4.15,4.15h0Z"/>
          <path class="cls-4" d="M101.85,233.51c2.61,3.17,6.67,5.06,10.72,5.33,5.7,.38,11.09-3,13.94-7.8,1.11-1.87,.48-4.63-1.49-5.68-2-1.06-4.49-.51-5.68,1.49-.14,.24-.28,.47-.44,.7-.09,.14-.61,.67-.16,.24,.48-.46-.19,.2-.28,.31-.15,.16-.31,.33-.47,.48-.19,.19-.39,.36-.59,.54-.56,.5,.53-.35,.11-.08-.4,.26-.8,.54-1.22,.77-.2,.11-.52,.21-.7,.35,.27-.21,.77-.3,.15-.08-.45,.16-.91,.29-1.38,.39-.16,.04-.93,.11-.22,.06,.75-.06-.21,0-.36,.01-.41,.02-1.13-.16-1.5-.03,.28-.09,.87,.15,.15,.01-.22-.04-.43-.09-.65-.14-.25-.06-.49-.14-.73-.22-.48-.16-.61-.45,.08,.06-.62-.46-1.42-.76-2.07-1.2-.55-.37,.67,.56,.32,.25-.11-.1-.22-.18-.33-.28-.21-.18-.41-.37-.61-.57-.25-.25-.49-.51-.71-.78-1.38-1.68-4.45-1.54-5.87,0-1.64,1.79-1.48,4.07,0,5.87h0Z"/>
          <path class="cls-4" d="M189.33,192.81c4.05,9.46,6.22,20.56,4.32,30.79-1.97,10.57-8.56,19.2-17.19,25.39-7,5.02-14.77,8.3-22.86,11.11-5.96,2.08-12.01,3.89-18.17,5.29-20.17,4.6-41.4,4.82-61.36-.94-8.53-2.46-16.57-6.09-24.38-10.26-6.29-3.36-12.74-7.31-18.07-11.62-7.06-5.71-13.35-12.4-16.96-20.78-4.15-9.63-3.37-20.75,1.15-30.43,.95-2.03,.57-4.47-1.49-5.68-1.8-1.05-4.73-.55-5.68,1.49-4.79,10.27-6.61,21.74-3.4,32.78,2.61,8.99,8.12,16.87,14.75,23.37,11.71,11.49,27.11,19.97,42.32,25.9,22.19,8.65,46.58,9.72,69.84,5.32,7.32-1.38,14.53-3.34,21.58-5.72,8.08-2.73,16.08-5.74,23.35-10.28,10.05-6.28,18.83-15.15,22.88-26.47,4.01-11.19,3.07-23.92-.37-35.13-.87-2.83-1.95-5.58-3.11-8.3-.88-2.06-3.91-2.52-5.68-1.49-2.13,1.25-2.37,3.61-1.49,5.68h0Z"/>
          <path class="cls-4" d="M16.59,188.26c-1.91-14.8,.24-30,6.57-43.48,.95-2.03,.57-4.47-1.49-5.68-1.8-1.05-4.72-.55-5.68,1.49-6.96,14.84-9.8,31.37-7.7,47.67,.29,2.22,1.7,4.15,4.15,4.15,2.02,0,4.44-1.91,4.15-4.15h0Z"/>
          <path class="cls-4" d="M196.91,191.82c3.81-15.08,3.82-30.9,.04-45.98-1.3-5.18-9.3-2.98-8,2.21,3.42,13.65,3.41,27.93-.04,41.57-1.31,5.18,6.69,7.39,8,2.21h0Z"/>
          <g>
            <path class="cls-6" d="M64.02,24.93s-14.54,47.07,29.68,40.31c0,0-24.34,22.62-28.2,52l88.45,17.81s8.61-61.14-7.42-86.08c-16.03-24.93-35.97-16.64-57.88-3.86-7.12,4.15-19.3,3.56-24.64-20.18Z"/>
            <path class="cls-7" d="M93.65,97.33c4.09-14.05,10.98-27.33,21.96-37.03-12,.25-24.77,.25-36.52-4.09-12.28-4.63-15.99-13.86-16.51-24.94-2.15,12.6-2.85,39.16,31.11,33.96,0,0-24.34,22.62-28.2,52l26.54,5.34c-1.61-7.86-1.03-16.18,1.61-25.25Z"/>
            <g>
              <path class="cls-1" d="M63.53,32.67s-5.67,.32-9.08-1.95c-3.03-2.02-4.54-5.67,.49-4.7-1.95-1.78-3.73-3.4-4.21-6-.49-2.27,.16-5.02,2.92-3.57-.49-1.46-.97-3.57-.49-5.19,.33-1.46,1.78-2.59,2.27-.49,0-1.3,0-4.38,1.13-5.19,1.46-.97,2.43,.32,2.75,1.78,.49-4.21,6.16-10.86,9.4-5.19,3.08-1.46,8.1-1.46,9.4,2.27,.33-1.3,.97-4.22,2.76-2.92,1.3,.81,.65,3.24,.81,4.54,1.3-1.78,2.76-.81,2.92,.81,.16,.97-.33,2.76-.65,3.57,6.32-2.43,3.89,6.16,1.78,8.92,1.62-.49,3.73-.65,3.4,1.62-.16,2.27-3.4,3.89-5.03,4.86,4.54-.81,1.94,3.57-.16,5.03-1.78,1.3-4.21,2.27-6.48,2.27,4.86,2.27-3.08,3.57-5.02,3.4-3.24-.32-6.65-1.46-8.92-3.89Z"/>
              <path class="cls-5" d="M63.53,32.67c2.27,2.43,5.67,3.57,8.92,3.89,.95,.08,3.35-.19,4.97-.76-3.19-.7-5.44-3.45-3.33-8.03-7.49,.34-9.53-5.11-3.4-9.53-6.81,.34-8.17-6.13-1.36-7.83-4.09-2.04-4.77-5.45-1.36-8.85,.07-.06,.14-.11,.21-.17-3.3-4.13-8.39,2.02-8.85,6-.32-1.46-1.3-2.76-2.75-1.78-1.13,.81-1.13,3.89-1.13,5.19-.49-2.11-1.94-.97-2.27,.49-.49,1.62,0,3.73,.49,5.19-2.76-1.46-3.4,1.3-2.92,3.57,.49,2.59,2.27,4.22,4.21,6-5.03-.97-3.52,2.68-.49,4.7,3.4,2.27,9.08,1.95,9.08,1.95Z"/>
            </g>
            <g>
              <path class="cls-1" d="M69,101.55c-3.32-.51-9.83,3.19-4.72,6-1.53,1.02-7.41,3.06-3.07,5.36-2.04,1.53-5.87,4.85-1.02,5.62-5.62,1.28-6.9,6.9,.26,7.15-3.32,1.53-8.43,4.34-4.09,7.66,3.83,3.07,9.2,1.28,13.03-.77-1.79,1.79-1.79,3.83,.77,4.6,2.3,1.02,5.87-1.02,7.66-2.3,1.28,5.36,9.19,1.79,11.75-.77,.51,4.34,7.15,3.58,9.7,1.53-2.3,5.36,7.15,2.55,9.2,2.04-2.3,5.62,7.41,2.04,9.45,1.53-1.79,4.6,6.64,5.62,6.89,1.02,1.02,2.55,6.13,6.9,7.41,2.04,2.04,2.04,6.38,4.85,6.64-.25,.26,3.83,1.28,8.17,5.88,4.85-2.81,3.06,3.57,6.38,4.6,0,3.57,2.55,6.38-2.04,2.55-4.09,4.6-.77,7.92-6.13,3.57-9.19,2.04-1.02,8.68-6.13,2.81-6.9,4.6-1.79,3.83-5.87-1.02-5.36,4.85-4.85-4.85-2.81-6.64-2.81-.51-2.3-1.28-6.9-4.6-2.81-.77-4.09-4.34-3.06-6.9-1.02-2.55-2.04-7.41-5.11-10.73-2.55-2.55-2.55-7.15-2.81-10.47-1.79,6.13-5.62-2.3-6.64-5.88-1.79-.51-3.58-7.41-6.13-8.43-1.53-2.3-.77-5.62-3.07-7.15,0-3.58-1.53-6.9-5.36-10.73-1.79,5.36-3.32-3.07-5.87-4.09-.51-1.79-2.04-5.87-3.32-7.66-.26-.26-1.79-1.79-5.62-4.09-5.36-1.53,0-1.92,1.41-.89,2.43Z"/>
              <path class="cls-5" d="M149.01,141.5c-4.77,2.72-7.15-.34-7.15-4.77-4.43,2.04-9.54,2.04-8.51-4.09-4.09,1.36-12.6,2.72-9.53-4.43-4.77,2.04-12.26,4.77-12.26-2.72-2.38,1.36-7.83,4.09-10.22,1.36-1.7-2.04-.34-4.77,1.36-6.13-7.83,3.75-16.35-1.36-6.47-7.15-4.09-1.02-9.88-2.72-8.17-8.17,.21-.57,.55-1.11,.96-1.63-.74,0-1.49,.22-2.27,.7-.26,.25-.59,.51-1.02,.77,.34-.32,.68-.56,1.02-.77,3.04-2.9-4.16-4.68-5.1,.26-1.79-2.04-5.87-3.32-7.66-.26-.26-1.79-1.79-5.62-4.09-5.36-1.53,0-1.92,1.41-.89,2.43-3.32-.51-9.83,3.19-4.72,6-1.53,1.02-7.41,3.06-3.07,5.36-2.04,1.53-5.87,4.85-1.02,5.62-5.62,1.28-6.9,6.9,.26,7.15-3.32,1.53-8.43,4.34-4.09,7.66,3.83,3.07,9.2,1.28,13.03-.77-1.79,1.79-1.79,3.83,.77,4.6,2.3,1.02,5.87-1.02,7.66-2.3,1.28,5.36,9.19,1.79,11.75-.77,.51,4.34,7.15,3.58,9.7,1.53-2.3,5.36,7.15,2.55,9.2,2.04-2.3,5.62,7.41,2.04,9.45,1.53-1.79,4.6,6.64,5.62,6.89,1.02,1.02,2.55,6.13,6.9,7.41,2.04,2.04,2.04,6.38,4.85,6.64-.25,.26,3.83,1.28,8.17,5.88,4.85-2.81,3.06,3.57,6.38,4.6,0,1.83,1.31,3.45,.74,4.09-.4-2.18-1.11-3.97-2.95-4.41-4.97Z"/>
            </g>
            <g>
              <path class="cls-1" d="M146.41,97.05c-.43-1.55-1.62-3.16-3.03-4.65,1.76-.03,3.18-.44,2.83-1.85-.39-1.37-1.47-2.8-2.73-4.11,1.62-.03,2.94-.45,2.57-1.96-.74-2.62-2.84-5.25-5.08-7.08-2.72,.96-5.59,2.73-7.17,4.95-.86,1.3,.24,2.14,1.76,2.71-1.63,.81-3.12,1.79-3.95,2.95-.8,1.21,.39,2.08,2.04,2.7-1.83,.93-3.49,2.05-4.43,3.36-1.9,2.87,5.73,4.11,8.06,4.6,2.35,.32,9.96,1.73,9.13-1.62Z"/>
              <path class="cls-1" d="M135.34,99.24s-1.11,3.36-.69,3.74c.41,.38,4.29,1.21,4.88,.8,.59-.42,1.03-3.65,1.03-3.65,0,0-2.1,0-5.22-.89Z"/>
              <path class="cls-1" d="M144.47,74.84c0-.07-.06-.13-.13-.16l-1.72-.53-.37-1.76c-.02-.07-.07-.13-.14-.14-.07-.01-.15,.01-.19,.08l-1.03,1.47-1.79-.19c-.07,0-.14,.03-.18,.09-.04,.06-.03,.14,.01,.2l1.08,1.44-.74,1.64c-.03,.07-.02,.15,.03,.2,.05,.05,.13,.07,.19,.05l1.7-.59,1.33,1.21s.06,.04,.09,.04c.04,0,.08,0,.11-.01,.07-.03,.11-.1,.11-.17l-.03-1.8,1.56-.89c.06-.04,.1-.11,.09-.18Z"/>
            </g>
          </g>
        </g>
      </g>
    </g>
  </g>
</svg>