<?xml version="1.0" encoding="UTF-8"?>
<svg xmlns="http://www.w3.org/2000/svg" viewBox="0 0 298.24 212.79">
  <defs>
    <style>
      .cls-1 {
        fill: #fff;
      }

      .cls-2 {
        isolation: isolate;
      }

      .cls-3 {
        fill: #f5d3b7;
      }

      .cls-4 {
        fill: #bf9451;
      }

      .cls-5 {
        fill: #fff0d7;
      }

      .cls-6 {
        fill: #f33b3d;
      }

      .cls-7 {
        fill: #c62242;
        mix-blend-mode: multiply;
        opacity: .5;
      }

      .cls-8 {
        fill: #fff0dd;
      }

      .cls-9 {
        fill: #fbdbd8;
      }
    </style>
  </defs>
  <g class="cls-2">
    <g id="Layer_2" data-name="Layer 2">
      <g id="Layer_1-2" data-name="Layer 1">
        <g>
          <path class="cls-4" d="M41.28,99.3c-3.34-8.65-11.76-14.42-21.18-12.23-9.05,2.1-14.73,11.99-11.32,20.79,1.59,4.11,4.86,7.1,8.83,8.9,3.62,1.64,7.56,2.35,11.18,3.96,2.71,1.21,6.32,3.59,6.07,6.87-.19,2.55-3.31,4.52-5.73,5.62-6.4,2.89-14.85,1.65-20.23-3.13-2.11-1.88-5.32-2.08-7.39,0-1.91,1.91-2.12,5.51,0,7.39,6.02,5.36,14.1,8.27,22.19,7.61,8-.66,17.07-4.44,20.44-12.26,3.97-9.21-2.84-18-11.09-21.57-3.45-1.5-7.54-2.29-10.75-3.78-2.74-1.27-4.55-3-4.02-6.1,.44-2.55,3.2-4.31,5.8-4.34,2.95-.04,5.98,2.14,7.1,5.06,1.02,2.63,3.52,4.45,6.43,3.65,2.52-.69,4.67-3.78,3.65-6.43h0Z"/>
          <path class="cls-4" d="M45.73,105.61c-2.77,8.72,.04,20.46,9.04,24.36,3.08,1.33,6.25,1.93,9.58,1.25,2.41-.49,4.78-1.9,6.44-3.7,2.75-2.97,4.28-6.9,4.97-10.84,.3-1.71,.52-3.45,.63-5.18,.05-.81,.07-1.61,.05-2.42s-.23-1.78-.13-2.62l-.71,2.64,.02-.02c-1.5,.86-3.01,1.73-4.51,2.59h0c-.88-.24-1.76-.48-2.64-.71-1.05-.51-2.17-1.97-2.34-3,.01,.08,.05,.15,.06,.22,.06,.29,.13,.57,.19,.85,.25,1.22,.45,2.46,.65,3.69,1,6.06,1.89,12.14,2.78,18.21,.4,2.72,3.97,4.45,6.43,3.65,2.97-.96,4.08-3.52,3.65-6.43-.93-6.34-1.85-12.69-2.91-19.01-.62-3.68-1.06-7.53-5.88-7.93-1.89-.16-3.52,1.14-4.51,2.59-1.25,1.82-.54,4.51-.59,6.56-.02,.84-.08,1.69-.16,2.53-.03,.26-.06,.51-.09,.77-.07,.62,.24-1.51,.04-.33-.12,.71-.25,1.41-.41,2.11-.16,.67-.34,1.33-.56,1.98-.11,.33-.24,.66-.36,.99-.28,.77,.2-.48,.22-.52-.13,.21-.23,.49-.34,.71-.32,.63-.74,1.18-1.09,1.78,.76-1.29,.37-.47-.02-.08-.12,.12-.25,.23-.37,.35-.63,.67,1.05-.67,.26-.18-.29,.18-.59,.36-.89,.53-.65,.38,.45-.42,.52-.21,0,.02-.85,.27-.79,.25-.61,.2-.19,.3,.21,0-.1,.07-.71,.03-.77,.03,.02,0-.72,.01-.75-.04,.72,.11,.89,.13,.49,.06-.17-.03-.35-.07-.52-.11-.43-.1-.85-.25-1.27-.38-.88-.26,1.1,.54-.06-.02-.43-.21-.83-.45-1.24-.69-.87-.5,0,.09,.12,.13-.14-.04-.47-.41-.54-.48-.32-.31-.59-.75-.94-1.02,.12,.09,.66,.99,.23,.26-.11-.18-.23-.36-.34-.54s-.21-.36-.3-.55-.41-1.04-.12-.19c.3,.86-.16-.48-.24-.7-.13-.4-.24-.81-.35-1.22-.09-.35-.16-.71-.24-1.06-.02-.12-.05-.24-.07-.36l-.09-.47c.06,.54,.07,.62,.03,.24-.03-.65-.09-1.29-.08-1.94,0-.27,.02-.53,.03-.8,.02-.25,.04-.5,.07-.76l-.09,.68c.3-.87,.37-1.86,.65-2.75,.83-2.61-.97-5.82-3.65-6.43-2.85-.65-5.54,.86-6.43,3.65h0Z"/>
          <path class="cls-4" d="M158.71,173.51c-3.73-7.34-12.37-10.76-19.84-7.2-1.22,.58-2.32,1.3-3.34,2.11-.26-1.72-.54-3.44-.84-5.14-1.3-7.26-1.77-7.46-2.1-10.9-.25-2.54-.11-3.6-.58-9.15-.19-2.2-.4-3.81-1.66-5.09-.96-.98-2.56-1.63-4.13-1.33-1.61,.31-2.54,1.5-2.92,1.98-.22,.28-1.05,1.4-1.33,3.2-1.32,8.78,2.6,23.88,2.6,23.88,1.19,4.57,2.53,11.28,2.87,19.9,0,0,0,0,0,0,0,0,0,0,0,0,0,.02,0,.03,0,.05-.12,1.69,.6,3.4,2.58,4.47,5.62,3.02,12.08,5.91,18.61,4.29,9.24-2.29,14.43-12.49,10.06-21.08Zm-14.95,11.03c-2.02-.22-3.73-.86-5.41-1.67,.77-2.99,2.44-5.67,4.81-7.02,1.01-.58,.58-.49,1.71-.64-.75,.1-.07-.03,.32,0,.21,.01,.26,0,.21-.02l.36,.08c1.57,.48,3.05,1.7,3.79,3.24,1.79,3.74-2.56,6.4-5.79,6.04Z"/>
          <path class="cls-4" d="M114.48,112.22c-1.31-3.63-3.16-8.07-6.01-10.86-3.9-4.24-9.75-7.21-15.58-6.15-6.24,1.13-10.71,7.22-11.75,13.2-1.23,7.01,1.39,14.13,7.92,17.57,5.67,2.99,12.34,2.49,17.33-1.01,.1,2.24-.05,4.46-.58,6.49-1.95,7.54-13.81,10.34-21.97,9.54-10.05-.99-16.4-4.12-16.4-4.12-1.84-.91-4.44-2.38-6.84-1.38-1.93,.81-3.44,3.11-3.23,5.11,.17,1.6,1.52,3.71,9.31,6.56,8.9,3.26,14.75,5.4,22.79,4.31,8.81-1.19,24.5-6.18,26.75-18.73,1.19-6.63,.55-14.21-1.74-20.53Zm-13.13,3.44c-2.74,3.02-8.29,2.08-9.66-1.18-1.23-2.91,.11-7.13,2.3-8.62,1.98-1.34,4.92,.7,6.73,2.53,1.61,2.45,2.66,5.04,.63,7.28Z"/>
          <path class="cls-4" d="M149.68,107.06c-2.16-7.73-9.19-13.36-17.4-11.8-5.7,1.08-10.54,5.93-12.78,11.1-2.94,6.78-2.6,15.09,3.09,20.4,5.38,5.03,13.89,6.6,20.11,2.14,6.89-4.94,9.08-13.87,6.97-21.84-.7-2.64-3.76-4.52-6.43-3.65-2.92,.94-4.15,3.54-3.65,6.43,1.16,6.81,2.32,13.61,3.48,20.42,.46,2.7,3.93,4.46,6.43,3.65,2.92-.94,4.15-3.54,3.65-6.43-1.16-6.81-2.32-13.61-3.48-20.42-3.36,.93-6.72,1.85-10.08,2.78,.16,.61,.27,1.22,.41,1.82-.25-1.09,.03,.46,.04,.84,.02,.58-.02,1.15-.03,1.73-.03,.98,.01,.07,.05-.13-.07,.41-.14,.81-.23,1.21-.12,.53-.29,1.03-.45,1.55-.08,.26-.21,.95,.09-.15-.06,.22-.23,.51-.33,.7-.23,.45-.48,.89-.76,1.31-.11,.17-.28,.49-.43,.61,.43-.34,.5-.58,0-.07-.33,.33-.72,.65-1.03,.99-.45,.5,.82-.49,.23-.17-.2,.11-.38,.26-.58,.38-.25,.15-.5,.27-.75,.41-.71,.4,.27-.25,.31-.13,.03,.09-2.05,.49-1.21,.37,.71-.11-.18,0-.36,0-.28,0-.57-.03-.85-.01-.75,.05,.86,.21,.13,.04-.28-.07-.56-.11-.83-.18s-.55-.15-.82-.24c-.16-.06-.97-.43-.37-.13s-.19-.12-.33-.2c-.31-.17-.6-.36-.91-.54-.8-.47-.12-.07,.04,.07-.21-.18-.42-.36-.63-.55-.27-.25-1.19-1.38-.54-.47-.32-.45-.58-.91-.86-1.38-.47-.79-.03-.04,.04,.16-.12-.38-.26-.74-.36-1.13-.07-.25-.12-.51-.17-.77-.14-.62-.27-.2,.02,.22-.2-.29-.06-1.23-.05-1.58,0-.26,.03-.53,.05-.79,.03-.52-.19-.52-.04,.21-.1-.44,.28-1.32,.4-1.75,.07-.26,.15-.51,.24-.76,.06-.17,.32-.99,.09-.31s.05-.11,.14-.28c.11-.24,.23-.47,.36-.7,.25-.46,.51-.9,.8-1.33,.1-.15,.57-.84,.15-.24-.44,.63,.19-.22,.3-.34,.48-.54,1.01-1.01,1.55-1.49,.93-.82-.95,.6,.09-.05,.42-.26,.84-.5,1.26-.76,.8-.48-.19,.02-.26,.07,.24-.18,.81-.29,1.09-.37,.11-.03,.76-.21,.78-.18-.06-.1-1.08,.06,.07,.05,.16,0,1.09,.06,.42-.01s.36,.1,.5,.14c.08,.02,.63,.14,.72,.24-.61-.27-.73-.32-.38-.14,.17,.08,.34,.17,.5,.27,.22,.13,.43,.29,.65,.41-.55-.31-.48-.41,0,.03,.19,.18,.38,.36,.56,.55,.4,.42,.45,.58,.08,.02,.39,.57,.74,1.15,1.06,1.77,.14,.27,.23,.84-.02-.08,.11,.42,.28,.83,.39,1.25,.74,2.63,3.74,4.52,6.43,3.65,2.69-.87,4.44-3.61,3.65-6.43h0Z"/>
          <path class="cls-4" d="M152.83,99.87c1.13,10.27,2.98,20.43,5.71,30.39,.72,2.64,3.75,4.52,6.43,3.65,2.87-.93,4.21-3.55,3.65-6.43-1.28-6.62-2.14-13.06-2.01-20.13,0-.19,.05-.88-.02-.31,.05-.37,.13-.75,.23-1.11,.03-.13,.5-1.37,.23-.79-.24,.53,.2-.32,.25-.41s.56-.89,.24-.43c-.34,.49,.48-.52,.49-.53,.22-.22,.45-.43,.68-.63-.4,.34-.31,.21,.07,0,.11-.06,1.21-.64,.61-.37-.52,.24,.39-.12,.5-.15,.09-.03,1.07-.27,.5-.16-.63,.13,.62-.03,.76-.03,.33,0,.65,.02,.98,.04-.55-.05-.37-.07,.06,.06,.11,.03,1.33,.42,.76,.2-.52-.2,.69,.39,.69,.39,2.37,1.36,5.83,.64,7.15-1.88,1.31-2.49,.66-5.7-1.88-7.15-8.39-4.8-19.05-.72-22.03,8.49-1.38,4.27-.72,9.28-.33,13.67,.42,4.69,1.08,9.37,1.98,13.99,3.36-.93,6.72-1.85,10.08-2.78-1.27-4.66-2.38-9.35-3.29-14.09-.93-4.82-1.55-9-2.05-13.52-.3-2.71-2.19-5.36-5.23-5.23-2.58,.12-5.55,2.32-5.23,5.23h0Z"/>
          <path class="cls-4" d="M198.51,132.77c-.75,15.61,.3,31.21,2.95,46.61,.79,4.58,7.45,4.88,9.56,1.25,1.3-2.23,1.89-4.57,2.33-7.08,.34-1.93,.61-3.87,1.91-5.41,1.69-2.01,4.28-3.06,6.22-1.49,5.77,4.66-4.25,14.02-7.26,8.12-1.28-2.51-4.82-3.24-7.15-1.88-2.55,1.49-3.17,4.63-1.88,7.15,4,7.82,14.37,8.87,21.09,4.04,6.59-4.73,9.52-13.75,5.49-21.1-3.91-7.12-12.64-9.47-19.68-5.56-3.1,1.72-5.73,4.56-7.2,7.78s-1.16,7.15-2.9,10.15c3.19,.42,6.37,.83,9.56,1.25-2.48-14.47-3.28-29.17-2.57-43.83,.32-6.73-10.14-6.71-10.46,0h0Z"/>
          <path class="cls-4" d="M192.35,162.18c-3.34-3.98-8.83-6.63-14-6.7-7.88-.1-14.66,5.66-17.05,12.94-2.48,7.52,1.02,16.53,8.19,20.1,7.64,3.81,17.68,1.37,22.09-6.17,1.88-3.22,2.55-7.06,2.55-10.74,0-1.25-.09-2.49-.21-3.74-.04-.42-.09-.83-.12-1.25-.05-1.04,.17-.11-.16,.68-.45,.77-.9,1.54-1.34,2.31l-1.01,.78c-.88,.24-1.76,.48-2.64,.71-1.78,.06-3.54-1.05-4.37-2.47,.04,.07,.07,.13,.11,.2-.06-.12-.61-1.68-.38-.86,.04,.16,.1,.31,.15,.47,.33,1.07,.57,2.16,.81,3.25,1.17,5.2,2.11,10.46,3.06,15.71,.49,2.7,3.91,4.47,6.43,3.65,2.89-.94,4.18-3.54,3.65-6.43-1.12-6.17-2.05-12.48-3.75-18.53-.52-1.86-1.27-3.68-3.03-4.71-3.57-2.09-7.87,.66-7.99,4.64-.02,.77,.09,1.54,.16,2.31,.13,1.46,.21,2.93,.15,4.39-.02,.38-.05,.76-.08,1.14-.04,.64-.27,.1,.07-.4-.07,.1-.1,.58-.11,.67-.16,.85-.5,1.64-.69,2.47-.15,.66,.49-.86,.12-.29-.13,.19-.21,.42-.32,.62-.15,.26-.4,.91-.67,1.04,.02,0,.86-.94,.13-.22-.13,.13-.25,.27-.39,.39-.18,.17-.37,.33-.55,.5-.47,.45,1.01-.61-.02-.01-.4,.23-.79,.48-1.2,.69-.16,.08-.96,.37-.3,.15s-.04,0-.14,.03c-.54,.15-1.06,.3-1.61,.42-.78,.17,.04,.12,.13-.02-.06,.08-.74,.04-.85,.04-.29,0-.57-.02-.86-.03-.34,0-.84-.24,.09,.02-.49-.14-1.02-.3-1.51-.4-.57-.11,.15,.09,.26,.14-.25-.12-.5-.24-.74-.37s-.46-.29-.7-.42c-.84-.44,.34,.37-.07-.02-.34-.32-.69-.61-1.01-.96-.08-.09-.53-.53-.52-.59,0-.03,.7,1.06,.12,.12-.24-.38-.48-.76-.69-1.16-.02-.05-.22-.51-.25-.51,.25,.61,.3,.74,.17,.37-.05-.12-.09-.23-.12-.35-.16-.47-.24-.95-.37-1.43-.15-.55,.06,.44,.05,.49,.04-.16-.05-.54-.05-.73-.02-.42,0-.85,.02-1.27,.02-.33,.3-.8,0-.21-.31,.64,.05-.12,.11-.38,.1-.42,.22-.82,.36-1.23,.43-1.23-.33,.55,.11-.28,.23-.44,.46-.87,.72-1.29,.13-.21,.27-.41,.41-.62,.46-.68-.02,.19-.14,.18,.11,0,1.04-1.11,1.14-1.21,.13-.13,.28-.25,.41-.37,.89-.83-.91,.57,.11-.09,.42-.27,.83-.54,1.27-.77,.12-.07,.62-.25,.67-.33-.12,.2-.94,.33-.21,.12,.54-.16,1.09-.29,1.63-.43,.69-.18-.92,.02-.19,.03,.33,0,.66-.04,.99-.03,.19,0,.38,.01,.58,.02,1.13,.07,.02-.15-.09-.03,.11-.13,1.39,.34,1.56,.39s.33,.12,.49,.17c1.06,.34-.69-.38-.16-.07,.42,.24,.86,.43,1.28,.67,.34,.2,.68,.42,1.01,.64,1.13,.78-.66-.6,.11,.07,.64,.55,1.28,1.11,1.83,1.77,1.76,2.1,5.6,1.96,7.39,0,2.05-2.24,1.88-5.15,0-7.39h0Z"/>
          <path class="cls-4" d="M235.6,159.62c.91,6.31-.28,12.53,2.86,18.43,2.98,5.61,8.89,8.43,15.09,7.31,5.27-.95,10.16-4.83,12.52-9.61,3.07-6.23,2.96-13.12,2.48-19.87-3.42,.46-6.85,.93-10.27,1.39,.3,1.17,.52,2.37,.71,3.56,.08,.48,.15,.96,.22,1.44-.2-1.44,.05,.55,.09,.9,.15,1.46,.25,2.93,.3,4.39,.23,6.92-.46,13.61-3.63,19.88-3.2,6.34-8.4,11.38-14.83,13.75-9.01,3.33-19.18,.53-27.96-2.26-1.63-.52-6.13-2.75-12.4-3.59-3.6-.48-6.74-.42-9.32,1.39-.58,.41-2.77,1.95-2.63,3.83,.19,2.45,4.23,3.81,5.35,4.18,3.39,1.14,6.22,.74,7.67,.63,6.1-.47,9.58,2.37,15.32,4.49,2.44,.9,14.94,5.24,27.14,1.27,11.81-3.84,17.97-13.69,19.54-16.33,4.34-7.26,6.1-15.86,6.23-24.25,.08-5.33-.4-10.89-1.72-16.07-1.42-5.59-10.69-4.59-10.27,1.39,.42,5.94,1.66,17.86-6.66,19.27-2.3,.39-3.8-1.44-4.51-3.98-1.27-4.56-.56-9.65-1.23-14.34-.4-2.8-3.96-4.33-6.43-3.65-3,.83-4.06,3.63-3.65,6.43Z"/>
          <path class="cls-8" d="M194.26,112c1.99,4.37,5.17,6.63,9.47,9.68,3.24,2.3,6.25,3.79,8.52,4.76,5.19,1.53,12.33,3.05,20.89,3.15,10.69,.13,19.41-1.98,25.2-3.9,1.34-.55,3.26-1.47,5.31-2.96,1.99-1.45,5.33-3.88,7.27-8.38,.31-.72,2.23-5.34,1.11-10.82-.66-3.26-1.76-3.66-2.03-6.84-.27-3.22,.62-4.68,1.14-7.8,.4-2.39,.5-5.94-1.13-10.61,1.3-.69,3.9-2.3,5.73-5.43,.62-1.06,1.7-2.92,1.73-5.4,.05-4.04-2.64-6.82-4.18-8.43-4.18-4.36-9.4-5.23-10.64-5.41-2.49-.35-9.16-1.3-13.3,3.36-3.62,4.08-2.79,9.62-2.63,10.6-3.02-.93-6.74-1.8-11.04-2.27-5.36-.58-10.04-.35-13.69,.1,.08-.31,1.62-6.49-2.81-11.06-3.94-4.06-9.27-3.43-9.84-3.35-2.57,.17-6.79,.87-10.94,3.65-2.43,1.63-6.95,4.67-7.63,9.97-.51,4,1.44,7.2,1.73,7.66,1.26,1.99,2.84,3.15,3.77,3.73-3.21,10.3-3.29,14.68-2.58,16.66,.1,.29,.48,1.44,.44,2.99-.05,2.21-.94,3.8-1.24,4.41-2.1,4.34,.88,10.89,1.34,11.92Z"/>
          <path class="cls-4" d="M223.36,67.41c7.92-2.3,16.55-1.49,23.79,2.09,1.35,.67,2.95-.43,2.56-1.97-.56-2.23-.75-4.72,.25-6.87,.79-1.72,2.12-2.86,3.8-3.73,3.5-1.81,8.04-1.85,11.88-.76,1.64,.46,3.2,1.15,4.61,2.11,.15,.1,.29,.2,.43,.31,.11,.08,.23,.17,.34,.25-.33-.25,0,0,.13,.11,.58,.47,1.14,.97,1.66,1.49,2.59,2.58,4.59,6.05,3.38,9.83-.31,.96-.87,1.93-1.46,2.65-.36,.44-.77,.85-1.19,1.23-.39,.35-.67,.57-.96,.78-.67,.48-1.37,.9-2.1,1.27-.27,.14-.55,.25-.82,.38-.07,.03,.43-.17,.09-.04-.06,.02-.12,.05-.18,.07-.88,.33-1.48,1.18-1.22,2.15,.23,.84,1.26,1.55,2.15,1.22,3.34-1.26,6.53-3.6,8.22-6.8,1.28-2.42,1.65-5.21,1.01-7.88-.55-2.3-1.83-4.35-3.34-6.13-5.53-6.52-15.27-9.14-23.25-5.77-2.41,1.02-4.6,2.66-5.91,4.97-1.76,3.08-1.72,6.75-.88,10.1,.85-.66,1.71-1.31,2.56-1.97-8.21-4.06-17.66-5-26.48-2.44-2.15,.62-1.24,3.99,.93,3.36h0Z"/>
          <path class="cls-4" d="M237.55,106.15c.1,1.41-1.92,2.82-3.74,2.83-1.92,.01-3.98-1.52-3.84-2.94,.13-1.33,2.16-2.25,3.75-2.25,1.64,0,3.73,.97,3.83,2.36Z"/>
          <path class="cls-4" d="M224.58,66.19c.7-4.42,0-9.04-3.03-12.5-3-3.42-7.78-4.63-12.18-4.43s-8.71,1.6-12.29,4.21c-4.06,2.96-7.57,7.22-8.1,12.38-.54,5.22,3.01,9.55,7.32,11.98,1.96,1.11,3.72-1.91,1.76-3.01-2.78-1.57-5.51-4.13-5.64-7.64-.15-4.05,2.67-7.61,5.62-10.07,2.8-2.34,6.34-3.84,9.88-4.25,3.36-.39,7.07-.07,9.84,2.03,1.85,1.4,2.94,3.49,3.39,5.73,.19,.95,.24,1.92,.21,2.88-.01,.41-.04,.82-.08,1.22-.01,.14-.03,.29-.05,.43,.06-.5,0,0-.02,.11-.15,.93,.24,1.88,1.22,2.15,.83,.23,2-.28,2.15-1.22h0Z"/>
          <path class="cls-3" d="M201.17,66.18c.04-2.17,1.46-4.27,3.49-5.07,.91-.36,1.9-.47,2.88-.5,1.01-.03,2.03,0,3,.3,2.75,.82,4.68,3.78,4.32,6.62-.03,.27-4.18,1.48-4.64,1.68-1.54,.63-3.06,1.62-4.64,2.11-2.59,.8-4.44-3-4.4-5.14Z"/>
          <path class="cls-3" d="M259.4,63.93c2.87-.46,6.29,1.02,7.55,3.92,.14,.33,1.22,2.93-.19,5.28-.21,.35-1.12,1.88-2.78,2.22-.97,.2-1.54-.14-5.26-2.23-3.21-1.81-3.76-2.1-4.08-2.96-.62-1.68,.44-3.4,.61-3.68,1.28-2.09,3.67-2.47,4.15-2.55Z"/>
          <circle class="cls-4" cx="221.49" cy="100.64" r="2.85"/>
          <circle class="cls-4" cx="246.03" cy="100.74" r="2.85"/>
          <path class="cls-9" d="M261.24,112.53c-.52-1.46-1.47-2.79-2.9-3.49-1.39-.68-3.1-.77-4.44,.1-2.65,1.72-3.16,5.5-1.38,8.01,1.79,2.53,4.73,3.76,7.77,3.31,2.86-.42,5.27-2.39,6.29-5.09,1.19-3.14,.06-6.9-2.51-9-.73-.6-1.75-.71-2.47,0-.61,.61-.73,1.87,0,2.47,.22,.18,.43,.37,.63,.57,.07,.07,.45,.51,.27,.28,.17,.21,.32,.45,.45,.69,.05,.09,.11,.19,.15,.29,.01,.03,.21,.5,.09,.17,.17,.45,.3,.92,.37,1.39-.05-.35-.01,0,0,.09,0,.13,.01,.27,.01,.4,0,.11,0,.21,0,.32,0,.04-.07,.55,0,.17-.04,.24-.09,.47-.16,.7-.04,.13-.08,.26-.12,.38-.02,.05-.13,.3,0,.04-.1,.22-.21,.43-.34,.64-.07,.11-.14,.22-.22,.33-.2,.3,.16-.15-.11,.14-.16,.17-.31,.34-.48,.49-.09,.09-.19,.17-.29,.25,.06-.05,.26-.17,0,0-.19,.12-.38,.24-.57,.35-.11,.06-.22,.11-.33,.17-.33,.17,.25-.07-.13,.05-.43,.13-.84,.26-1.28,.33,.38-.06-.12,0-.26,0-.27,.01-.53,0-.79-.01-.11,0-.42-.07-.03,0-.09-.02-.19-.03-.28-.05-.23-.05-.45-.12-.67-.19-.06-.02-.29-.12,0,.01-.1-.04-.19-.09-.29-.14-.27-.14-.52-.3-.77-.47s.29,.26-.12-.09c-.09-.07-.17-.15-.25-.22-.19-.17-.36-.36-.53-.55-.19-.23,.18,.32-.08-.12-.06-.1-.12-.19-.18-.28s-.11-.2-.16-.29c-.17-.33,0,.13-.07-.2-.03-.13-.07-.26-.1-.4-.06-.28-.02,.38,0-.11,0-.11,0-.23,0-.34,0-.49-.09,.19,0,0,.08-.16,.09-.39,.15-.57,.03-.09,.06-.17,.09-.26-.15,.38,.02-.01,.07-.1,.06-.11,.12-.21,.19-.31,.07-.1,.05-.08-.06,.06,.05-.06,.09-.11,.15-.16,.05-.07,.31-.28,.03-.06,.12-.09,.25-.16,.38-.23-.09,.05-.29,.07,0,.01,.07-.02,.14-.04,.22-.05,.13-.02,.09-.02-.14,.02,.07,0,.19,0,.27,0,.37-.02-.26-.1,.07,.01,.13,.04,.27,.07,.4,.12-.28-.1-.04-.01,.1,.07,.08,.05,.17,.1,.25,.16-.3-.19,.06,.05,.12,.1,.08,.07,.14,.15,.22,.22,.26,.25-.06-.14,.12,.15,.07,.12,.15,.23,.21,.35,.04,.07,.08,.15,.11,.22-.06-.15-.06-.13,.02,.06,.32,.89,1.19,1.48,2.15,1.22,.86-.24,1.54-1.25,1.22-2.15h0Z"/>
          <path class="cls-9" d="M210.23,110.26c.19-.52-.09,.14,.05-.14,.06-.12,.13-.25,.2-.36,.06-.09,.12-.18,.18-.27-.17,.24-.02,.02,.03-.02,.09-.09,.18-.18,.27-.27,.07-.07,.34-.23,.06-.05,.08-.05,.16-.11,.25-.16s.46-.17,.1-.07c.11-.03,.22-.07,.33-.1,.12-.04,.41-.04,0-.02,.17,0,.58,.03,.2-.04,.12,.02,.24,.05,.35,.09,.24,.07-.28-.21,.06,.03,.08,.06,.17,.1,.25,.16-.31-.23,.04,.08,.08,.11,.22,.21,.05,.05,0-.01,.07,.1,.13,.2,.19,.3s.11,.21,.17,.32c-.03-.06-.11-.33-.01-.03,.06,.19,.11,.38,.17,.57,.04,.12,.04,.41,0-.04,.01,.17,.02,.34,.02,.51,0,.33,0,.12,.01,.03-.02,.14-.06,.27-.09,.4-.02,.07-.14,.41-.02,.13-.04,.1-.1,.2-.15,.3s-.11,.2-.17,.29c.02-.03-.29,.42-.15,.24s-.21,.24-.19,.22c-.11,.13-.24,.25-.36,.36-.59,.55-1.22,.89-2.03,1.08-.11,.03-.23,.04-.35,.07,.35-.08,.14-.01,.04,0-.24,.01-.48,.03-.72,.03-.19,0-.39-.02-.58-.04,.39,.04,.06,0-.04-.01-.14-.03-.29-.06-.43-.1-.22-.06-.42-.13-.63-.2-.31-.1-.06-.02,0,0-.11-.05-.23-.1-.34-.16-.2-.1-.39-.22-.58-.34-.08-.06-.17-.11-.25-.17,.3,.21-.06-.05-.12-.11-.19-.17-.36-.36-.54-.54-.22-.23-.07-.07-.02,0-.08-.1-.15-.21-.22-.32-.13-.2-.24-.41-.35-.63-.16-.3-.05-.1-.02-.03-.06-.15-.11-.3-.16-.46-.04-.13-.07-.26-.1-.39-.01-.05-.09-.52-.07-.32,.03,.26-.02-.26-.02-.24,0-.16-.01-.32,0-.48,0-.11,.01-.21,.01-.32,.02-.5-.08,.32,.02-.17,.05-.26,.11-.52,.19-.78,.14-.46,.26-.74,.66-1.33,.06-.09,.12-.18,.19-.27-.2,.25,.11-.11,.15-.16,.23-.25,.48-.48,.74-.69,.73-.6,.62-1.85,0-2.47-.72-.72-1.73-.6-2.47,0-2.36,1.93-3.42,5.11-2.79,8.08,.61,2.84,2.93,5.09,5.71,5.84,2.8,.75,5.79-.04,7.82-2.13,1.12-1.16,1.93-2.72,1.9-4.36-.02-1.43-.6-2.86-1.57-3.91-1.17-1.27-3.05-1.7-4.66-1.13-1.76,.63-2.96,2.04-3.58,3.77-.31,.86,.35,1.95,1.22,2.15,.98,.22,1.82-.3,2.15-1.22h0Z"/>
          <path class="cls-4" d="M228.42,116.9c1.1,0,2.28-.01,3.32-.41,1.1-.43,2.15-1.12,2.68-2.21,.21-.43,.31-.87,.18-1.34-.11-.4-.42-.84-.8-1.04-.4-.21-.89-.32-1.34-.18-.41,.13-.84,.4-1.04,.8-.08,.16-.17,.31-.28,.45l.27-.35c-.14,.17-.3,.33-.47,.47l.35-.27c-.24,.18-.49,.32-.76,.44l.42-.18c-.38,.16-.78,.26-1.19,.32l.46-.06c-.59,.08-1.19,.08-1.79,.09-.91,0-1.79,.8-1.74,1.74,.04,.94,.77,1.75,1.74,1.74h0Z"/>
          <path class="cls-4" d="M231.73,114.51c1.1,1.33,2.8,2.13,4.51,2.24,2.39,.16,4.66-1.26,5.86-3.28,.47-.78,.2-1.95-.63-2.39s-1.89-.21-2.39,.63c-.06,.1-.12,.2-.18,.3-.04,.06-.26,.28-.07,.1,.2-.19-.08,.08-.12,.13-.06,.07-.13,.14-.2,.2-.08,.08-.16,.15-.25,.23-.23,.21,.22-.15,.05-.03s-.33,.23-.51,.32c-.08,.05-.22,.09-.3,.15,.11-.09,.33-.13,.06-.03-.19,.07-.38,.12-.58,.17-.07,.01-.39,.05-.09,.02,.31-.02-.09,0-.15,0-.17,0-.47-.07-.63-.01,.12-.04,.37,.06,.06,0-.09-.02-.18-.04-.27-.06-.1-.03-.21-.06-.31-.09-.2-.07-.25-.19,.03,.03-.26-.19-.6-.32-.87-.5-.23-.16,.28,.24,.13,.1-.05-.04-.09-.08-.14-.12-.09-.08-.17-.16-.26-.24-.11-.1-.21-.21-.3-.33-.58-.71-1.87-.65-2.47,0-.69,.75-.62,1.71,0,2.47h0Z"/>
          <path class="cls-4" d="M268.51,97.4c1.7,3.98,2.62,8.64,1.82,12.94-.83,4.44-3.6,8.07-7.23,10.67-2.94,2.11-6.21,3.49-9.61,4.67-2.51,.87-5.05,1.63-7.64,2.22-8.48,1.93-17.4,2.03-25.79-.4-3.58-1.04-6.96-2.56-10.25-4.31-2.64-1.41-5.35-3.07-7.6-4.89-2.97-2.4-5.61-5.21-7.13-8.74-1.74-4.05-1.42-8.72,.48-12.79,.4-.85,.24-1.88-.63-2.39-.75-.44-1.99-.23-2.39,.63-2.01,4.32-2.78,9.14-1.43,13.78,1.1,3.78,3.41,7.09,6.2,9.82,4.92,4.83,11.39,8.39,17.79,10.89,9.33,3.64,19.58,4.08,29.36,2.24,3.08-.58,6.11-1.4,9.07-2.41,3.4-1.15,6.76-2.41,9.82-4.32,4.23-2.64,7.91-6.37,9.62-11.13,1.69-4.71,1.29-10.06-.15-14.77-.36-1.19-.82-2.35-1.31-3.49-.37-.87-1.65-1.06-2.39-.63-.9,.52-1,1.52-.63,2.39h0Z"/>
          <path class="cls-4" d="M195.9,95.49c-.8-6.22,.1-12.61,2.76-18.28,.4-.85,.24-1.88-.63-2.39-.76-.44-1.98-.23-2.39,.63-2.93,6.24-4.12,13.19-3.24,20.04,.12,.93,.72,1.74,1.74,1.74,.85,0,1.86-.8,1.74-1.74h0Z"/>
          <path class="cls-4" d="M271.69,96.99c1.6-6.34,1.61-12.99,.02-19.33-.55-2.18-3.91-1.25-3.36,.93,1.44,5.74,1.43,11.74-.02,17.47-.55,2.18,2.81,3.11,3.36,.93h0Z"/>
          <path class="cls-4" d="M282.62,132.11c-.85,.49,.23,.02-.31,.13l-.17,.04c.33-.06,.29-.08-.14-.05,.68,.27-.91-.38-.32-.13-.24-.1-.48-.34-.63-.52,.25,.32-.37-.63-.32-.55-.3-.52-.05,.12-.2-.51-.22-.91-.33-1.47-.2-2.29-.07,.43,.2-.75,.18-.64,.01-.05,.24-.6,.06-.21,.31-.67,.26-.58,.76-1.05-.46,.44,1.06-.54,.43-.29,.41-.16,.85-.27,1.28-.34-.61,.09-.04,.02,.08,.03,.28,.02,.56,0,.84,.02,.59,.03-.73-.23,.25,.04,.33,.09,.65,.17,.98,.27,.11,.04,.58,.28,.1,.04,.22,.11,.45,.23,.66,.36,.63,.38,.49,.27,.95,.68,.96,.85,1.4,1.41,2,2.33,.31,.48,.59,.97,.86,1.48,.15,.29,.3,.58,.44,.87-.02-.03,.26,.58,.15,.3,.24,.57,.44,1.17,.6,1.76,.09,.33,.18,.66,.25,1,.02,.1,.15,1.08,.12,.69,.05,.53,.05,1.07,.02,1.6-.02,.4-.07,.61-.27,1.22-.25,.78-.63,1.31-1.29,1.96-.17,.17-.34,.32-.52,.48-.81,.73,.25-.15-.28,.21-.44,.31-.9,.59-1.37,.84-1.12,.6-1.43,.71-2.71,1.09-2.12,.63-4.42,.96-6.24,.62-1.39-.26-2.21-.53-3.28-1.21-.13-.08-.68-.51-.22-.13-.21-.17-.41-.36-.61-.55s-.38-.4-.56-.6c.38,.43-.17-.24-.24-.35-.12-.18-.23-.37-.34-.56-.03-.05-.45-.98-.21-.35-.2-.5-.33-1.02-.45-1.55,.13,.61,0,.14,0-.02,0-.32,0-.63,0-.95,.01-.96-.11,.37,.03-.17,.04-.14,.39-1.15,.11-.53,.76-1.72,.5-3.73-1.25-4.76-1.48-.86-4-.48-4.76,1.25-3.02,6.86,1.07,14.14,7.83,16.64,6.34,2.35,14.97,.29,19.82-4.35,5.79-5.54,4-14.49-.31-20.36-2.09-2.85-4.95-5.36-8.53-6.01-3.49-.63-7.38,.13-9.8,2.91-2.98,3.43-3.27,8.45-1.27,12.45,2.08,4.17,7.36,6.11,11.48,3.73,3.87-2.24,.38-8.25-3.51-6h0Z"/>
          <path class="cls-4" d="M95.23,181.42c4.04,2.33,8.9,.8,11.54-2.84,2.36-3.25,2.69-7.88,1.14-11.53-1.62-3.83-5.21-6.01-9.29-6.23-3.78-.21-7.43,1.58-10.04,4.22-5.25,5.29-8.85,15.13-4.26,21.86,4.28,6.27,13.21,8.76,20.43,7.61,8.55-1.36,14.61-10.18,10.98-18.42-.81-1.83-3.49-2.26-5.07-1.33-1.89,1.11-2.14,3.23-1.33,5.07-.35-.8,.25,1.43,.13,.42,.06,.45,.03,.9,.02,1.35-.01,.72-.03,.19,0,.03-.06,.28-.12,.56-.2,.83s-.17,.55-.27,.82c.24-.59-.14,.23-.22,.37-.23,.41-.47,.81-.76,1.18,.39-.5-.11,.08-.21,.19-.16,.17-.33,.34-.5,.49-.12,.11-.71,.57-.2,.2-.19,.14-.38,.27-.58,.39-.22,.14-.45,.25-.67,.38-.53,.3-.11,.11-.66,.29-.66,.22-1.33,.4-2.02,.53-.5,.09-.34,.06-1.11,.1-1.51,.06-2.4-.01-3.68-.28-1.15-.24-2.27-.58-3.37-.98-.67-.25,.75,.37-.35-.14-.23-.11-.46-.22-.69-.33-.57-.29-1.1-.63-1.65-.97-.99-.62,.21,.21-.31-.22-.19-.16-.38-.33-.56-.5-.23-.22-.44-.44-.65-.67-.06-.07-.39-.55-.11-.13-.25-.37-.61-1-.72-1.26,.14,.35-.27-.95-.21-.77-.18-.58-.08-.05-.12-.69-.12-2.19,.55-4.46,1.59-6.45,.28-.54,.58-1.07,.91-1.58,.18-.29,.37-.57,.56-.85,.01-.02,.42-.55,.15-.22,.76-.95,1.67-1.79,2.37-2.22,.28-.18,.58-.34,.87-.49-.14,.07-.6,.19,.11-.04,.23-.07,.46-.15,.69-.21-.05,.01,1.09-.2,.57-.13s.64-.02,.59-.02c.24,0,.48,.01,.72,.02-.62-.03-.08-.02,.07,.02,.34,.09,.68,.17,1.02,.29-.69-.26,.97,.8,.46,.31,.47,.44,.6,.63,.78,1.04-.17-.4,.24,.81,.2,.69l.09,.39c-.02-.26-.02-.25,0,.01,.03,.34,.01,.67,.03,1.01,.03,.69,.11-.12-.06,.58s-.23,.99-.4,1.29c-.12,.22-.25,.45-.4,.66,.33-.44-.33,.32-.42,.4,.38-.3-.13,.06-.19,.09,.51-.22-.43,.14-.56,.16,.71-.13-.47,.14-.04,0,.24,.05,.15,.03-.25-.06,.29,.16,.24,.13-.15-.1-4.14-2.39-7.88,4.02-3.74,6.4h0Z"/>
          <g>
            <path class="cls-6" d="M211.04,12.62s-7.36,23.83,15.02,20.4c0,0-12.32,11.45-14.27,26.32l44.77,9.01s4.36-30.95-3.76-43.57c-8.11-12.62-18.21-8.42-29.3-1.95-3.61,2.1-9.77,1.8-12.47-10.22Z"/>
            <path class="cls-7" d="M226.04,49.27c2.07-7.11,5.56-13.83,11.12-18.74-6.08,.13-12.54,.13-18.49-2.07-6.21-2.34-8.09-7.01-8.36-12.62-1.09,6.38-1.44,19.82,15.75,17.19,0,0-12.32,11.45-14.27,26.32l13.44,2.71c-.81-3.98-.52-8.19,.81-12.78Z"/>
            <g>
              <path class="cls-1" d="M210.8,16.54s-2.87,.16-4.6-.98c-1.53-1.02-2.3-2.87,.25-2.38-.99-.9-1.89-1.72-2.13-3.04-.25-1.15,.08-2.54,1.48-1.81-.25-.74-.49-1.81-.25-2.63,.16-.74,.9-1.31,1.15-.25,0-.66,0-2.21,.57-2.63,.74-.49,1.23,.16,1.39,.9,.25-2.13,3.12-5.5,4.76-2.63,1.56-.74,4.1-.74,4.76,1.15,.16-.66,.49-2.13,1.4-1.48,.66,.41,.33,1.64,.41,2.3,.66-.9,1.4-.41,1.48,.41,.08,.49-.16,1.39-.33,1.81,3.2-1.23,1.97,3.12,.9,4.51,.82-.25,1.89-.33,1.72,.82-.08,1.15-1.72,1.97-2.54,2.46,2.3-.41,.98,1.81-.08,2.54-.9,.66-2.13,1.15-3.28,1.15,2.46,1.15-1.56,1.81-2.54,1.72-1.64-.16-3.36-.74-4.51-1.97Z"/>
              <path class="cls-5" d="M210.8,16.54c1.15,1.23,2.87,1.81,4.51,1.97,.48,.04,1.7-.1,2.52-.38-1.61-.36-2.76-1.75-1.69-4.06-3.79,.17-4.83-2.59-1.72-4.83-3.45,.17-4.14-3.1-.69-3.96-2.07-1.03-2.41-2.76-.69-4.48,.03-.03,.07-.06,.1-.09-1.67-2.09-4.25,1.02-4.48,3.04-.16-.74-.66-1.39-1.39-.9-.57,.41-.57,1.97-.57,2.63-.25-1.07-.98-.49-1.15,.25-.25,.82,0,1.89,.25,2.63-1.39-.74-1.72,.66-1.48,1.81,.25,1.31,1.15,2.13,2.13,3.04-2.54-.49-1.78,1.36-.25,2.38,1.72,1.15,4.6,.98,4.6,.98Z"/>
            </g>
            <g>
              <path class="cls-1" d="M213.57,51.4c-1.68-.26-4.98,1.62-2.39,3.04-.78,.52-3.75,1.55-1.55,2.71-1.03,.78-2.97,2.46-.52,2.84-2.84,.65-3.49,3.49,.13,3.62-1.68,.78-4.27,2.2-2.07,3.88,1.94,1.55,4.65,.65,6.59-.39-.91,.91-.91,1.94,.39,2.33,1.16,.52,2.97-.52,3.88-1.16,.65,2.71,4.65,.91,5.95-.39,.26,2.2,3.62,1.81,4.91,.78-1.16,2.71,3.62,1.29,4.65,1.03-1.16,2.84,3.75,1.03,4.78,.78-.91,2.33,3.36,2.84,3.49,.52,.52,1.29,3.1,3.49,3.75,1.03,1.03,1.03,3.23,2.46,3.36-.13,.13,1.94,.65,4.14,2.97,2.46-1.42,1.55,1.81,3.23,2.33,0,1.81,1.29,3.23-1.03,1.29-2.07,2.33-.39,4.01-3.1,1.81-4.65,1.03-.52,4.4-3.1,1.42-3.49,2.33-.91,1.94-2.97-.52-2.71,2.46-2.46-2.46-1.42-3.36-1.42-.26-1.16-.65-3.49-2.33-1.42-.39-2.07-2.2-1.55-3.49-.52-1.29-1.03-3.75-2.59-5.43-1.29-1.29-1.29-3.62-1.42-5.3-.91,3.1-2.84-1.16-3.36-2.97-.9-.26-1.81-3.75-3.1-4.27-.78-1.16-.39-2.84-1.55-3.62,0-1.81-.78-3.49-2.71-5.43-.91,2.72-1.68-1.55-2.97-2.07-.26-.91-1.03-2.97-1.68-3.88-.13-.13-.91-.91-2.84-2.07-2.71-.78,0-.97,.71-.45,1.23Z"/>
              <path class="cls-5" d="M254.06,71.63c-2.41,1.38-3.62-.17-3.62-2.41-2.24,1.03-4.83,1.03-4.31-2.07-2.07,.69-6.38,1.38-4.83-2.24-2.41,1.03-6.2,2.41-6.2-1.38-1.21,.69-3.96,2.07-5.17,.69-.86-1.03-.17-2.41,.69-3.1-3.96,1.9-8.27-.69-3.27-3.62-2.07-.52-5-1.38-4.14-4.14,.1-.29,.28-.56,.49-.82-.38,0-.76,.11-1.15,.35-.13,.13-.3,.26-.52,.39,.17-.16,.35-.29,.52-.39,1.54-1.47-2.11-2.37-2.58,.13-.91-1.03-2.97-1.68-3.88-.13-.13-.91-.91-2.84-2.07-2.71-.78,0-.97,.71-.45,1.23-1.68-.26-4.98,1.62-2.39,3.04-.78,.52-3.75,1.55-1.55,2.71-1.03,.78-2.97,2.46-.52,2.84-2.84,.65-3.49,3.49,.13,3.62-1.68,.78-4.27,2.2-2.07,3.88,1.94,1.55,4.65,.65,6.59-.39-.91,.91-.91,1.94,.39,2.33,1.16,.52,2.97-.52,3.88-1.16,.65,2.71,4.65,.91,5.95-.39,.26,2.2,3.62,1.81,4.91,.78-1.16,2.71,3.62,1.29,4.65,1.03-1.16,2.84,3.75,1.03,4.78,.78-.91,2.33,3.36,2.84,3.49,.52,.52,1.29,3.1,3.49,3.75,1.03,1.03,1.03,3.23,2.46,3.36-.13,.13,1.94,.65,4.14,2.97,2.46-1.42,1.55,1.81,3.23,2.33,0,.93,.66,1.75,.37,2.07-.2-1.1-.56-2.01-1.49-2.23-2.52Z"/>
            </g>
            <g>
              <path class="cls-1" d="M252.75,49.12c-.22-.78-.82-1.6-1.54-2.36,.89-.01,1.61-.22,1.43-.94-.2-.69-.74-1.42-1.38-2.08,.82-.01,1.49-.23,1.3-.99-.37-1.33-1.44-2.66-2.57-3.58-1.38,.49-2.83,1.38-3.63,2.51-.43,.66,.12,1.08,.89,1.37-.83,.41-1.58,.9-2,1.49-.41,.61,.2,1.05,1.03,1.37-.93,.47-1.77,1.04-2.24,1.7-.96,1.45,2.9,2.08,4.08,2.33,1.19,.16,5.04,.87,4.62-.82Z"/>
              <path class="cls-1" d="M247.14,50.23s-.56,1.7-.35,1.89c.21,.19,2.17,.61,2.47,.4,.3-.21,.52-1.85,.52-1.85,0,0-1.06,0-2.64-.45Z"/>
              <path class="cls-1" d="M251.76,37.88s-.03-.07-.07-.08l-.87-.27-.19-.89s-.04-.06-.07-.07c-.04,0-.07,0-.1,.04l-.52,.75-.9-.1s-.07,.01-.09,.05c-.02,.03-.02,.07,0,.1l.55,.73-.37,.83s0,.07,.02,.1c.02,.03,.06,.04,.1,.03l.86-.3,.67,.61s.03,.02,.04,.02c.02,0,.04,0,.06,0,.03-.02,.06-.05,.05-.09l-.02-.91,.79-.45s.05-.05,.05-.09Z"/>
            </g>
          </g>
        </g>
      </g>
    </g>
  </g>
</svg>